<?xml version="1.0" encoding="utf-8"?>
<svg width="100%" height="100%" viewBox="-110.000000 -110.000000 220.000000 220.000000"
     preserveAspectRatio="xMidYMin meet"
     version="1.1" baseProfile="full" xmlns="http://www.w3.org/2000/svg">
<g style="stroke:#000;stroke-width:0">
<circle cx="0" cy="0" r="100" fill="#eee"/>
<circle cx="41.987462" cy="7.249414" r="2" fill="#0f0"/>
<circle cx="17.597705" cy="7.289208" r="2" fill="#0f0"/>
<circle cx="24.819933" cy="7.376378" r="2" fill="#0f0"/>
<circle cx="46.343894" cy="8.171679" r="2" fill="#0f0"/>
<circle cx="57.681798" cy="8.694132" r="2" fill="#0f0"/>
<circle cx="37.762661" cy="8.312190" r="2" fill="#0f0"/>
<circle cx="19.654325" cy="7.544588" r="2" fill="#0f0"/>
<circle cx="23.265988" cy="7.767328" r="2" fill="#0f0"/>
<circle cx="41.247188" cy="8.767360" r="2" fill="#0f0"/>
<circle cx="59.088465" cy="10.418891" r="2" fill="#0f0"/>
<circle cx="16.711197" cy="7.440304" r="2" fill="#0f0"/>
<circle cx="86.930774" cy="12.678532" r="2" fill="#0f0"/>
<circle cx="72.811041" cy="11.730933" r="2" fill="#0f0"/>
<circle cx="16.762302" cy="7.463058" r="2" fill="#0f0"/>
<circle cx="14.968795" cy="7.328912" r="2" fill="#0f0"/>
<circle cx="34.162368" cy="9.341997" r="2" fill="#0f0"/>
<circle cx="81.246640" cy="14.325975" r="2" fill="#0f0"/>
<circle cx="36.061231" cy="9.662578" r="2" fill="#0f0"/>
<circle cx="48.574502" cy="11.854019" r="2" fill="#0f0"/>
<circle cx="38.432664" cy="10.509746" r="2" fill="#0f0"/>
<circle cx="36.754744" cy="10.341182" r="2" fill="#0f0"/>
<circle cx="39.178054" cy="11.078498" r="2" fill="#0f0"/>
<circle cx="66.833709" cy="15.444581" r="2" fill="#0f0"/>
<circle cx="36.003456" cy="10.743624" r="2" fill="#0f0"/>
<circle cx="50.431154" cy="13.131251" r="2" fill="#0f0"/>
<circle cx="55.961944" cy="14.294022" r="2" fill="#0f0"/>
<circle cx="41.102593" cy="11.829730" r="2" fill="#0f0"/>
<circle cx="46.317636" cy="12.830977" r="2" fill="#0f0"/>
<circle cx="27.529930" cy="9.633139" r="2" fill="#0f0"/>
<circle cx="26.022257" cy="9.471327" r="2" fill="#0f0"/>
<circle cx="50.966267" cy="14.762559" r="2" fill="#0f0"/>
<circle cx="45.366060" cy="13.761644" r="2" fill="#0f0"/>
<circle cx="48.351881" cy="14.742542" r="2" fill="#0f0"/>
<circle cx="41.896588" cy="13.328264" r="2" fill="#0f0"/>
<circle cx="67.906535" cy="19.123677" r="2" fill="#0f0"/>
<circle cx="25.199764" cy="9.714221" r="2" fill="#0f0"/>
<circle cx="75.265850" cy="21.152980" r="2" fill="#0f0"/>
<circle cx="42.692497" cy="13.738168" r="2" fill="#0f0"/>
<circle cx="86.703379" cy="24.135535" r="2" fill="#0f0"/>
<circle cx="32.057748" cy="11.410104" r="2" fill="#0f0"/>
<circle cx="31.323087" cy="11.400671" r="2" fill="#0f0"/>
<circle cx="25.192140" cy="9.942988" r="2" fill="#0f0"/>
<circle cx="25.806401" cy="10.128266" r="2" fill="#0f0"/>
<circle cx="64.412685" cy="19.868682" r="2" fill="#0f0"/>
<circle cx="35.785393" cy="12.736860" r="2" fill="#0f0"/>
<circle cx="34.023354" cy="12.383488" r="2" fill="#0f0"/>
<circle cx="25.530118" cy="10.220718" r="2" fill="#0f0"/>
<circle cx="36.939641" cy="13.444930" r="2" fill="#0f0"/>
<circle cx="20.886990" cy="9.072500" r="2" fill="#0f0"/>
<circle cx="49.765318" cy="16.964305" r="2" fill="#0f0"/>
<circle cx="50.841886" cy="17.258495" r="2" fill="#0f0"/>
<circle cx="75.711279" cy="24.339986" r="2" fill="#0f0"/>
<circle cx="42.226122" cy="15.048823" r="2" fill="#0f0"/>
<circle cx="36.577729" cy="13.666979" r="2" fill="#0f0"/>
<circle cx="58.289770" cy="20.174286" r="2" fill="#0f0"/>
<circle cx="63.332256" cy="21.741991" r="2" fill="#0f0"/>
<circle cx="56.835985" cy="19.887771" r="2" fill="#0f0"/>
<circle cx="37.020948" cy="14.040193" r="2" fill="#0f0"/>
<circle cx="85.631762" cy="28.588083" r="2" fill="#0f0"/>
<circle cx="25.664087" cy="10.736943" r="2" fill="#0f0"/>
<circle cx="43.116080" cy="16.181735" r="2" fill="#0f0"/>
<circle cx="22.229102" cy="9.728462" r="2" fill="#0f0"/>
<circle cx="48.808244" cy="18.015739" r="2" fill="#0f0"/>
<circle cx="24.916110" cy="10.615762" r="2" fill="#0f0"/>
<circle cx="70.174470" cy="25.541418" r="2" fill="#0f0"/>
<circle cx="43.134770" cy="16.710499" r="2" fill="#0f0"/>
<circle cx="18.914249" cy="8.819859" r="2" fill="#0f0"/>
<circle cx="26.495619" cy="11.473714" r="2" fill="#0f0"/>
<circle cx="64.622640" cy="25.362517" r="2" fill="#0f0"/>
<circle cx="64.567812" cy="25.564205" r="2" fill="#0f0"/>
<circle cx="51.212896" cy="20.717680" r="2" fill="#0f0"/>
<circle cx="81.451453" cy="31.967340" r="2" fill="#0f0"/>
<circle cx="19.899681" cy="9.347663" r="2" fill="#0f0"/>
<circle cx="39.272714" cy="16.596787" r="2" fill="#0f0"/>
<circle cx="45.713061" cy="19.177165" r="2" fill="#0f0"/>
<circle cx="36.997003" cy="15.876664" r="2" fill="#0f0"/>
<circle cx="18.227694" cy="8.777995" r="2" fill="#0f0"/>
<circle cx="45.228441" cy="19.220003" r="2" fill="#0f0"/>
<circle cx="47.802729" cy="20.233160" r="2" fill="#0f0"/>
<circle cx="67.552150" cy="28.076107" r="2" fill="#0f0"/>
<circle cx="56.920981" cy="24.038202" r="2" fill="#0f0"/>
<circle cx="37.322937" cy="16.334207" r="2" fill="#0f0"/>
<circle cx="63.335046" cy="26.603846" r="2" fill="#0f0"/>
<circle cx="18.826215" cy="9.066227" r="2" fill="#0f0"/>
<circle cx="66.727588" cy="28.128037" r="2" fill="#0f0"/>
<circle cx="28.859052" cy="13.075866" r="2" fill="#0f0"/>
<circle cx="30.390797" cy="13.693450" r="2" fill="#0f0"/>
<circle cx="17.358771" cy="8.499074" r="2" fill="#0f0"/>
<circle cx="49.353352" cy="21.532647" r="2" fill="#0f0"/>
<circle cx="55.116725" cy="24.279025" r="2" fill="#0f0"/>
<circle cx="45.238895" cy="20.563600" r="2" fill="#0f0"/>
<circle cx="42.998264" cy="19.677214" r="2" fill="#0f0"/>
<circle cx="28.637977" cy="13.514587" r="2" fill="#0f0"/>
<circle cx="23.017453" cy="11.084621" r="2" fill="#0f0"/>
<circle cx="32.717877" cy="15.337511" r="2" fill="#0f0"/>
<circle cx="18.397390" cy="9.072589" r="2" fill="#0f0"/>
<circle cx="48.740161" cy="22.549600" r="2" fill="#0f0"/>
<circle cx="30.115014" cy="14.289752" r="2" fill="#0f0"/>
<circle cx="16.193343" cy="8.132603" r="2" fill="#0f0"/>
<circle cx="28.345088" cy="13.650275" r="2" fill="#0f0"/>
<circle cx="24.321973" cy="11.994270" r="2" fill="#0f0"/>
<circle cx="55.648077" cy="26.798702" r="2" fill="#0f0"/>
<circle cx="40.085141" cy="19.504038" r="2" fill="#0f0"/>
<circle cx="35.274646" cy="17.233363" r="2" fill="#0f0"/>
<circle cx="35.011758" cy="17.142201" r="2" fill="#0f0"/>
<circle cx="53.233067" cy="25.901362" r="2" fill="#0f0"/>
<circle cx="86.031069" cy="41.721683" r="2" fill="#0f0"/>
<circle cx="70.962173" cy="35.096026" r="2" fill="#0f0"/>
<circle cx="31.664149" cy="15.902333" r="2" fill="#0f0"/>
<circle cx="48.955527" cy="24.586390" r="2" fill="#0f0"/>
<circle cx="29.016904" cy="14.637939" r="2" fill="#0f0"/>
<circle cx="26.697371" cy="13.510447" r="2" fill="#0f0"/>
<circle cx="38.033703" cy="19.292721" r="2" fill="#0f0"/>
<circle cx="47.454895" cy="24.071651" r="2" fill="#0f0"/>
<circle cx="71.841439" cy="36.441806" r="2" fill="#0f0"/>
<circle cx="41.396421" cy="21.022572" r="2" fill="#0f0"/>
<circle cx="79.200580" cy="40.354711" r="2" fill="#0f0"/>
<circle cx="50.124519" cy="25.917490" r="2" fill="#0f0"/>
<circle cx="39.661949" cy="20.609438" r="2" fill="#0f0"/>
<circle cx="63.702849" cy="33.555133" r="2" fill="#0f0"/>
<circle cx="63.332453" cy="33.542682" r="2" fill="#0f0"/>
<circle cx="33.462001" cy="17.562213" r="2" fill="#0f0"/>
<circle cx="52.777044" cy="27.952235" r="2" fill="#0f0"/>
<circle cx="38.848145" cy="20.608293" r="2" fill="#0f0"/>
<circle cx="21.722714" cy="11.308129" r="2" fill="#0f0"/>
<circle cx="37.133310" cy="19.744131" r="2" fill="#0f0"/>
<circle cx="38.734157" cy="20.799803" r="2" fill="#0f0"/>
<circle cx="82.013008" cy="44.892722" r="2" fill="#0f0"/>
<circle cx="84.223356" cy="46.264837" r="2" fill="#0f0"/>
<circle cx="63.901778" cy="35.019136" r="2" fill="#0f0"/>
<circle cx="31.202515" cy="16.755397" r="2" fill="#0f0"/>
<circle cx="57.651755" cy="31.694321" r="2" fill="#0f0"/>
<circle cx="17.740217" cy="9.234972" r="2" fill="#0f0"/>
<circle cx="39.120834" cy="21.506860" r="2" fill="#0f0"/>
<circle cx="47.653851" cy="26.426910" r="2" fill="#0f0"/>
<circle cx="50.424774" cy="28.076342" r="2" fill="#0f0"/>
<circle cx="36.369342" cy="20.067754" r="2" fill="#0f0"/>
<circle cx="85.914368" cy="48.915642" r="2" fill="#0f0"/>
<circle cx="66.020239" cy="37.702695" r="2" fill="#0f0"/>
<circle cx="34.743409" cy="19.330714" r="2" fill="#0f0"/>
<circle cx="49.193303" cy="27.906198" r="2" fill="#0f0"/>
<circle cx="49.193303" cy="27.906198" r="2" fill="#0f0"/>
<circle cx="25.745250" cy="14.057970" r="2" fill="#0f0"/>
<circle cx="40.490265" cy="22.846723" r="2" fill="#0f0"/>
<circle cx="69.282032" cy="40.000000" r="2" fill="#0f0"/>
<circle cx="28.142943" cy="15.528619" r="2" fill="#0f0"/>
<circle cx="23.053316" cy="12.554167" r="2" fill="#0f0"/>
<circle cx="47.012808" cy="27.142857" r="2" fill="#0f0"/>
<circle cx="21.438139" cy="11.651876" r="2" fill="#0f0"/>
<circle cx="24.874930" cy="13.768835" r="2" fill="#0f0"/>
<circle cx="39.056048" cy="22.549020" r="2" fill="#0f0"/>
<circle cx="78.150687" cy="46.670520" r="2" fill="#0f0"/>
<circle cx="41.934476" cy="24.624987" r="2" fill="#0f0"/>
<circle cx="25.875525" cy="14.572824" r="2" fill="#0f0"/>
<circle cx="43.462201" cy="25.668714" r="2" fill="#0f0"/>
<circle cx="37.593209" cy="22.184283" r="2" fill="#0f0"/>
<circle cx="30.503326" cy="17.950762" r="2" fill="#0f0"/>
<circle cx="40.347371" cy="24.435236" r="2" fill="#0f0"/>
<circle cx="74.349699" cy="46.911166" r="2" fill="#0f0"/>
<circle cx="63.115251" cy="39.600202" r="2" fill="#0f0"/>
<circle cx="44.044813" cy="27.074246" r="2" fill="#0f0"/>
<circle cx="36.934841" cy="22.397512" r="2" fill="#0f0"/>
<circle cx="36.617974" cy="22.267884" r="2" fill="#0f0"/>
<circle cx="43.275614" cy="26.752756" r="2" fill="#0f0"/>
<circle cx="38.756371" cy="23.749935" r="2" fill="#0f0"/>
<circle cx="24.309485" cy="14.035088" r="2" fill="#0f0"/>
<circle cx="34.781675" cy="21.151205" r="2" fill="#0f0"/>
<circle cx="38.897010" cy="23.949839" r="2" fill="#0f0"/>
<circle cx="40.906674" cy="25.328340" r="2" fill="#0f0"/>
<circle cx="44.634110" cy="27.890488" r="2" fill="#0f0"/>
<circle cx="32.752744" cy="19.917385" r="2" fill="#0f0"/>
<circle cx="38.036030" cy="23.550913" r="2" fill="#0f0"/>
<circle cx="19.087849" cy="10.594620" r="2" fill="#0f0"/>
<circle cx="26.498010" cy="15.753207" r="2" fill="#0f0"/>
<circle cx="14.813924" cy="7.637109" r="2" fill="#0f0"/>
<circle cx="63.129287" cy="42.316582" r="2" fill="#0f0"/>
<circle cx="56.332013" cy="37.776745" r="2" fill="#0f0"/>
<circle cx="79.682004" cy="54.728628" r="2" fill="#0f0"/>
<circle cx="48.145726" cy="32.521747" r="2" fill="#0f0"/>
<circle cx="49.574326" cy="33.799203" r="2" fill="#0f0"/>
<circle cx="45.893770" cy="31.093038" r="2" fill="#0f0"/>
<circle cx="23.499018" cy="14.231511" r="2" fill="#0f0"/>
<circle cx="23.892145" cy="14.600186" r="2" fill="#0f0"/>
<circle cx="26.941225" cy="16.928293" r="2" fill="#0f0"/>
<circle cx="25.441443" cy="15.897578" r="2" fill="#999"/>
<circle cx="53.875563" cy="37.966195" r="2" fill="#999"/>
<circle cx="71.912622" cy="52.247578" r="2" fill="#999"/>
<circle cx="31.145404" cy="20.484654" r="2" fill="#999"/>
<circle cx="52.829923" cy="37.697416" r="2" fill="#999"/>
<circle cx="26.117929" cy="16.638956" r="2" fill="#999"/>
<circle cx="46.356731" cy="32.747258" r="2" fill="#999"/>
<circle cx="39.200648" cy="27.091099" r="2" fill="#999"/>
<circle cx="30.125916" cy="19.910839" r="2" fill="#999"/>
<circle cx="33.686656" cy="22.768206" r="2" fill="#999"/>
<circle cx="40.210060" cy="28.014284" r="2" fill="#999"/>
<circle cx="29.219053" cy="19.361246" r="2" fill="#999"/>
<circle cx="46.082968" cy="33.131398" r="2" fill="#999"/>
<circle cx="22.715574" cy="14.194266" r="2" fill="#999"/>
<circle cx="32.837927" cy="22.541961" r="2" fill="#999"/>
<circle cx="18.232114" cy="10.526316" r="2" fill="#999"/>
<circle cx="67.947235" cy="51.871625" r="2" fill="#999"/>
<circle cx="41.901561" cy="30.227532" r="2" fill="#999"/>
<circle cx="35.791062" cy="25.264090" r="2" fill="#999"/>
<circle cx="38.524619" cy="27.989774" r="2" fill="#999"/>
<circle cx="47.239800" cy="35.498407" r="2" fill="#999"/>
<circle cx="20.357312" cy="12.604714" r="2" fill="#999"/>
<circle cx="31.308598" cy="22.477361" r="2" fill="#999"/>
<circle cx="27.343813" cy="19.063761" r="2" fill="#999"/>
<circle cx="61.521930" cy="50.051802" r="2" fill="#999"/>
<circle cx="17.197668" cy="9.929078" r="2" fill="#999"/>
<circle cx="23.859202" cy="16.040604" r="2" fill="#999"/>
<circle cx="59.605625" cy="48.917073" r="2" fill="#999"/>
<circle cx="47.049196" cy="37.570572" r="2" fill="#999"/>
<circle cx="24.785750" cy="17.034774" r="2" fill="#999"/>
<circle cx="31.289914" cy="23.093007" r="2" fill="#999"/>
<circle cx="25.183514" cy="17.461860" r="2" fill="#999"/>
<circle cx="72.127884" cy="63.214887" r="2" fill="#999"/>
<circle cx="54.258959" cy="46.152877" r="2" fill="#999"/>
<circle cx="26.744363" cy="19.430917" r="2" fill="#999"/>
<circle cx="15.850728" cy="8.797872" r="2" fill="#999"/>
<circle cx="28.251272" cy="21.084472" r="2" fill="#999"/>
<circle cx="64.578121" cy="57.441834" r="2" fill="#999"/>
<circle cx="43.298164" cy="36.331474" r="2" fill="#999"/>
<circle cx="28.632301" cy="21.970337" r="2" fill="#999"/>
<circle cx="24.515666" cy="17.811674" r="2" fill="#999"/>
<circle cx="46.219437" cy="40.252543" r="2" fill="#999"/>
<circle cx="32.123371" cy="25.964171" r="2" fill="#999"/>
<circle cx="28.016055" cy="21.686041" r="2" fill="#999"/>
<circle cx="24.753202" cy="18.373543" r="2" fill="#999"/>
<circle cx="49.042385" cy="44.379874" r="2" fill="#999"/>
<circle cx="40.754567" cy="36.811080" r="2" fill="#999"/>
<circle cx="32.466426" cy="27.616066" r="2" fill="#999"/>
<circle cx="26.476130" cy="20.984722" r="2" fill="#999"/>
<circle cx="27.755213" cy="22.475728" r="2" fill="#999"/>
<circle cx="23.095013" cy="17.354777" r="2" fill="#999"/>
<circle cx="29.248970" cy="24.542800" r="2" fill="#999"/>
<circle cx="30.772157" cy="26.561813" r="2" fill="#999"/>
<circle cx="30.523994" cy="26.347605" r="2" fill="#999"/>
<circle cx="27.950270" cy="23.453061" r="2" fill="#999"/>
<circle cx="40.827484" cy="39.559590" r="2" fill="#999"/>
<circle cx="31.024743" cy="27.637100" r="2" fill="#999"/>
<circle cx="22.140093" cy="16.988691" r="2" fill="#999"/>
<circle cx="19.130576" cy="13.315274" r="2" fill="#999"/>
<circle cx="38.111459" cy="37.473122" r="2" fill="#999"/>
<circle cx="21.540727" cy="16.633209" r="2" fill="#999"/>
<circle cx="46.769287" cy="49.201262" r="2" fill="#999"/>
<circle cx="53.352990" cy="58.551126" r="2" fill="#999"/>
<circle cx="20.212824" cy="15.509845" r="2" fill="#999"/>
<circle cx="21.060696" cy="16.729363" r="2" fill="#999"/>
<circle cx="35.306368" cy="37.028253" r="2" fill="#999"/>
<circle cx="18.752050" cy="13.624161" r="2" fill="#999"/>
<circle cx="25.493316" cy="23.788602" r="2" fill="#999"/>
<circle cx="21.649082" cy="18.165737" r="2" fill="#999"/>
<circle cx="20.745767" cy="16.877933" r="2" fill="#999"/>
<circle cx="39.419582" cy="44.667816" r="2" fill="#999"/>
<circle cx="23.591899" cy="21.242241" r="2" fill="#999"/>
<circle cx="52.179150" cy="64.305882" r="2" fill="#999"/>
<circle cx="29.860624" cy="30.742118" r="2" fill="#999"/>
<circle cx="23.625202" cy="21.350951" r="2" fill="#999"/>
<circle cx="47.430526" cy="57.698736" r="2" fill="#999"/>
<circle cx="26.950673" cy="28.699552" r="2" fill="#999"/>
<circle cx="27.880442" cy="30.964368" r="2" fill="#999"/>
<circle cx="29.565673" cy="34.807401" r="2" fill="#999"/>
<circle cx="18.139687" cy="14.265207" r="2" fill="#999"/>
<circle cx="17.140191" cy="12.453077" r="2" fill="#999"/>
<circle cx="28.965802" cy="33.992871" r="2" fill="#999"/>
<circle cx="25.155286" cy="27.937775" r="2" fill="#999"/>
<circle cx="19.402318" cy="17.015376" r="2" fill="#999"/>
<circle cx="19.948153" cy="19.160461" r="2" fill="#999"/>
<circle cx="25.234807" cy="30.322777" r="2" fill="#999"/>
<circle cx="38.426370" cy="61.094090" r="2" fill="#999"/>
<circle cx="37.740025" cy="60.644302" r="2" fill="#999"/>
<circle cx="21.658220" cy="26.025061" r="2" fill="#999"/>
<circle cx="15.170146" cy="9.749261" r="2" fill="#999"/>
<circle cx="17.824687" cy="18.149455" r="2" fill="#999"/>
<circle cx="17.202994" cy="16.523700" r="2" fill="#999"/>
<circle cx="15.988486" cy="12.700302" r="2" fill="#999"/>
<circle cx="35.783821" cy="77.390725" r="2" fill="#999"/>
<circle cx="24.766355" cy="42.896585" r="2" fill="#999"/>
<circle cx="20.050375" cy="29.408499" r="2" fill="#999"/>
<circle cx="27.775320" cy="61.177543" r="2" fill="#999"/>
<circle cx="17.549879" cy="22.871448" r="2" fill="#999"/>
<circle cx="19.823518" cy="37.507926" r="2" fill="#999"/>
<circle cx="20.104343" cy="39.543711" r="2" fill="#999"/>
<circle cx="25.785190" cy="82.925721" r="2" fill="#999"/>
<circle cx="16.635432" cy="22.896707" r="2" fill="#999"/>
<circle cx="16.619831" cy="25.081842" r="2" fill="#999"/>
<circle cx="18.561681" cy="47.294392" r="2" fill="#999"/>
<circle cx="19.454705" cy="56.002771" r="2" fill="#999"/>
<circle cx="14.923674" cy="13.314802" r="2" fill="#999"/>
<circle cx="20.159007" cy="70.212998" r="2" fill="#999"/>
<circle cx="14.965789" cy="14.558944" r="2" fill="#999"/>
<circle cx="20.043911" cy="71.668475" r="2" fill="#999"/>
<circle cx="18.099002" cy="58.675523" r="2" fill="#999"/>
<circle cx="15.446362" cy="37.049931" r="2" fill="#999"/>
<circle cx="14.463663" cy="13.582284" r="2" fill="#999"/>
<circle cx="14.291247" cy="12.867896" r="2" fill="#999"/>
<circle cx="14.105135" cy="18.167145" r="2" fill="#999"/>
<circle cx="14.009031" cy="17.368473" r="2" fill="#999"/>
<circle cx="12.952049" cy="36.062376" r="2" fill="#999"/>
<circle cx="11.601030" cy="38.750138" r="2" fill="#999"/>
<circle cx="14.042606" cy="9.832739" r="2" fill="#999"/>
<circle cx="13.949819" cy="10.566577" r="2" fill="#999"/>
<circle cx="13.813916" cy="11.591252" r="2" fill="#999"/>
<circle cx="12.790106" cy="19.141746" r="2" fill="#999"/>
<circle cx="7.829882" cy="57.324880" r="2" fill="#999"/>
<circle cx="7.608491" cy="51.524601" r="2" fill="#999"/>
<circle cx="13.894533" cy="9.590704" r="2" fill="#999"/>
<circle cx="8.810302" cy="39.200717" r="2" fill="#999"/>
<circle cx="8.796937" cy="30.678565" r="2" fill="#999"/>
<circle cx="9.858068" cy="24.399575" r="2" fill="#999"/>
<circle cx="10.042880" cy="22.556678" r="2" fill="#999"/>
<circle cx="13.348342" cy="10.644948" r="2" fill="#999"/>
<circle cx="-0.902721" cy="58.613739" r="2" fill="#999"/>
<circle cx="9.261713" cy="23.988438" r="2" fill="#999"/>
<circle cx="1.163440" cy="48.134090" r="2" fill="#999"/>
<circle cx="1.653102" cy="45.232961" r="2" fill="#999"/>
<circle cx="12.636626" cy="12.048999" r="2" fill="#999"/>
<circle cx="12.654866" cy="11.483679" r="2" fill="#999"/>
<circle cx="10.751263" cy="16.346501" r="2" fill="#999"/>
<circle cx="3.265768" cy="29.282740" r="2" fill="#999"/>
<circle cx="12.715565" cy="9.999631" r="2" fill="#999"/>
<circle cx="11.403029" cy="10.580465" r="2" fill="#999"/>
<circle cx="10.455166" cy="11.611638" r="2" fill="#999"/>
<circle cx="11.648801" cy="10.144950" r="2" fill="#999"/>
<circle cx="10.069132" cy="11.409714" r="2" fill="#999"/>
<circle cx="4.032032" cy="16.171595" r="2" fill="#999"/>
<circle cx="11.585298" cy="9.425339" r="2" fill="#999"/>
<circle cx="13.555180" cy="7.826087" r="2" fill="#999"/>
<circle cx="-7.687609" cy="22.881005" r="2" fill="#999"/>
<circle cx="2.414498" cy="15.554457" r="2" fill="#999"/>
<circle cx="11.363923" cy="9.245237" r="2" fill="#999"/>
<circle cx="-4.929887" cy="18.398587" r="2" fill="#999"/>
<circle cx="-1.917131" cy="16.402101" r="2" fill="#999"/>
<circle cx="12.424749" cy="8.068726" r="2" fill="#999"/>
<circle cx="11.134784" cy="8.544020" r="2" fill="#999"/>
<circle cx="6.819426" cy="10.110214" r="2" fill="#999"/>
<circle cx="11.475418" cy="8.337379" r="2" fill="#999"/>
<circle cx="5.021207" cy="10.768013" r="2" fill="#999"/>
<circle cx="-4.163273" cy="13.906299" r="2" fill="#999"/>
<circle cx="11.702172" cy="8.193949" r="2" fill="#999"/>
<circle cx="-15.019362" cy="17.682160" r="2" fill="#999"/>
<circle cx="3.787103" cy="10.942115" r="2" fill="#999"/>
<circle cx="9.365970" cy="8.930434" r="2" fill="#999"/>
<circle cx="5.737705" cy="9.937996" r="2" fill="#999"/>
<circle cx="-16.348632" cy="15.787690" r="2" fill="#999"/>
<circle cx="-5.966375" cy="12.794933" r="2" fill="#999"/>
<circle cx="-1.201477" cy="11.431286" r="2" fill="#999"/>
<circle cx="11.684185" cy="7.966142" r="2" fill="#999"/>
<circle cx="-32.475953" cy="18.750000" r="2" fill="#999"/>
<circle cx="10.326076" cy="8.234771" r="2" fill="#999"/>
<circle cx="8.844342" cy="8.540882" r="2" fill="#999"/>
<circle cx="10.412271" cy="8.104196" r="2" fill="#999"/>
<circle cx="7.149383" cy="8.756404" r="2" fill="#999"/>
<circle cx="9.779291" cy="8.205799" r="2" fill="#999"/>
<circle cx="6.436440" cy="8.645639" r="2" fill="#999"/>
<circle cx="-0.000000" cy="9.523810" r="2" fill="#999"/>
<circle cx="-12.459153" cy="10.850686" r="2" fill="#999"/>
<circle cx="-1.653792" cy="9.379121" r="2" fill="#999"/>
<circle cx="8.380078" cy="7.990389" r="2" fill="#999"/>
<circle cx="-4.530897" cy="9.548663" r="2" fill="#999"/>
<circle cx="4.705882" cy="8.150827" r="2" fill="#999"/>
<circle cx="0.000000" cy="8.247423" r="2" fill="#999"/>
<circle cx="10.372013" cy="7.535708" r="2" fill="#999"/>
<circle cx="7.542472" cy="7.542472" r="2" fill="#999"/>
<circle cx="8.754794" cy="7.346144" r="2" fill="#999"/>
<circle cx="6.625056" cy="7.357870" r="2" fill="#999"/>
<circle cx="-2.414195" cy="7.430129" r="2" fill="#999"/>
<circle cx="8.246305" cy="7.305589" r="2" fill="#999"/>
<circle cx="2.873469" cy="7.321479" r="2" fill="#999"/>
<circle cx="11.057927" cy="7.272913" r="2" fill="#999"/>
<circle cx="10.479046" cy="7.266009" r="2" fill="#f00"/>
<circle cx="4.166667" cy="7.216878" r="2" fill="#f00"/>
<circle cx="6.317086" cy="7.203256" r="2" fill="#f00"/>
<circle cx="2.565151" cy="7.047695" r="2" fill="#f00"/>
<circle cx="-1.589435" cy="6.963771" r="2" fill="#f00"/>
<circle cx="-1.497737" cy="6.562015" r="2" fill="#f00"/>
<circle cx="7.383256" cy="6.850661" r="2" fill="#f00"/>
<circle cx="-23.289229" cy="4.950278" r="2" fill="#f00"/>
<circle cx="-0.000000" cy="6.329114" r="2" fill="#f00"/>
<circle cx="10.821556" cy="7.027600" r="2" fill="#f00"/>
<circle cx="10.475208" cy="6.999310" r="2" fill="#f00"/>
<circle cx="9.929116" cy="6.952442" r="2" fill="#f00"/>
<circle cx="2.507242" cy="6.388349" r="2" fill="#f00"/>
<circle cx="-18.118521" cy="4.395506" r="2" fill="#f00"/>
<circle cx="8.277731" cy="6.661065" r="2" fill="#f00"/>
<circle cx="7.870320" cy="6.603982" r="2" fill="#f00"/>
<circle cx="-9.135657" cy="4.794763" r="2" fill="#f00"/>
<circle cx="-47.368421" cy="0.000000" r="2" fill="#f00"/>
<circle cx="3.431373" cy="5.943312" r="2" fill="#f00"/>
<circle cx="6.790893" cy="6.190717" r="2" fill="#f00"/>
<circle cx="-4.385158" cy="4.385158" r="2" fill="#f00"/>
<circle cx="6.953432" cy="6.097996" r="2" fill="#f00"/>
<circle cx="-19.616001" cy="1.647202" r="2" fill="#f00"/>
<circle cx="6.664822" cy="5.904517" r="2" fill="#f00"/>
<circle cx="8.183272" cy="6.149330" r="2" fill="#f00"/>
<circle cx="-27.768259" cy="-0.727137" r="2" fill="#f00"/>
<circle cx="4.537324" cy="5.407373" r="2" fill="#f00"/>
<circle cx="-4.309000" cy="3.615680" r="2" fill="#f00"/>
<circle cx="11.676747" cy="6.741573" r="2" fill="#f00"/>
<circle cx="-38.435959" cy="-3.410319" r="2" fill="#f00"/>
<circle cx="6.826139" cy="5.727810" r="2" fill="#f00"/>
<circle cx="-1.445156" cy="3.970532" r="2" fill="#f00"/>
<circle cx="2.777778" cy="4.811252" r="2" fill="#f00"/>
<circle cx="1.471509" cy="4.528841" r="2" fill="#f00"/>
<circle cx="2.755906" cy="4.773368" r="2" fill="#f00"/>
<circle cx="-2.744924" cy="3.442025" r="2" fill="#f00"/>
<circle cx="0.744206" cy="4.220605" r="2" fill="#f00"/>
<circle cx="2.659574" cy="4.606518" r="2" fill="#f00"/>
<circle cx="-17.307692" cy="0.000000" r="2" fill="#f00"/>
<circle cx="8.675507" cy="5.914861" r="2" fill="#f00"/>
<circle cx="3.580950" cy="4.666784" r="2" fill="#f00"/>
<circle cx="-0.000000" cy="3.773585" r="2" fill="#f00"/>
<circle cx="-3.907886" cy="2.664352" r="2" fill="#f00"/>
<circle cx="-2.593529" cy="2.880406" r="2" fill="#f00"/>
<circle cx="7.560906" cy="5.493320" r="2" fill="#f00"/>
<circle cx="0.376002" cy="3.577417" r="2" fill="#f00"/>
<circle cx="3.982920" cy="4.423481" r="2" fill="#f00"/>
<circle cx="0.949795" cy="3.544682" r="2" fill="#f00"/>
<circle cx="-3.820700" cy="2.205882" r="2" fill="#f00"/>
<circle cx="-5.528107" cy="1.705195" r="2" fill="#f00"/>
<circle cx="-4.478164" cy="1.993807" r="2" fill="#f00"/>
<circle cx="7.740019" cy="5.419620" r="2" fill="#f00"/>
<circle cx="-4.989518" cy="1.816036" r="2" fill="#f00"/>
<circle cx="-2.802602" cy="2.351662" r="2" fill="#f00"/>
<circle cx="-21.674637" cy="-3.087887" r="2" fill="#f00"/>
<circle cx="-19.995527" cy="-2.632461" r="2" fill="#f00"/>
<circle cx="-3.942497" cy="1.979996" r="2" fill="#f00"/>
<circle cx="-0.510730" cy="2.896493" r="2" fill="#f00"/>
<circle cx="-42.653096" cy="-9.735291" r="2" fill="#f00"/>
<circle cx="-2.299534" cy="2.299534" r="2" fill="#f00"/>
<circle cx="2.083333" cy="3.608439" r="2" fill="#f00"/>
<circle cx="7.390846" cy="5.175126" r="2" fill="#f00"/>
<circle cx="3.597476" cy="3.995402" r="2" fill="#f00"/>
<circle cx="-2.733166" cy="1.985761" r="2" fill="#f00"/>
<circle cx="-36.237042" cy="-8.791011" r="2" fill="#f00"/>
<circle cx="-8.433735" cy="0.000000" r="2" fill="#f00"/>
<circle cx="1.886792" cy="3.268020" r="2" fill="#f00"/>
<circle cx="-2.005977" cy="2.005977" r="2" fill="#f00"/>
<circle cx="-28.712799" cy="-6.805058" r="2" fill="#f00"/>
<circle cx="-20.379646" cy="-4.160534" r="2" fill="#f00"/>
<circle cx="-21.833652" cy="-4.640886" r="2" fill="#f00"/>
<circle cx="1.785714" cy="3.092948" r="2" fill="#f00"/>
<circle cx="-10.810021" cy="-1.136179" r="2" fill="#f00"/>
<circle cx="-49.043964" cy="-14.063130" r="2" fill="#f00"/>
<circle cx="-5.218131" cy="0.686980" r="2" fill="#f00"/>
<circle cx="-24.963484" cy="-6.409533" r="2" fill="#f00"/>
<circle cx="-12.986476" cy="-2.289866" r="2" fill="#f00"/>
<circle cx="3.449301" cy="3.449301" r="2" fill="#f00"/>
<circle cx="1.582278" cy="2.740587" r="2" fill="#f00"/>
<circle cx="-19.270601" cy="-4.749777" r="2" fill="#f00"/>
<circle cx="-37.805050" cy="-11.468037" r="2" fill="#f00"/>
<circle cx="2.835299" cy="3.148919" r="2" fill="#f00"/>
<circle cx="1.515152" cy="2.624319" r="2" fill="#f00"/>
<circle cx="1.470588" cy="2.547134" r="2" fill="#f00"/>
<circle cx="-5.319149" cy="0.000000" r="2" fill="#f00"/>
<circle cx="6.835809" cy="4.495983" r="2" fill="#f00"/>
<circle cx="11.793077" cy="6.332748" r="2" fill="#f00"/>
<circle cx="-4.347826" cy="0.000000" r="2" fill="#f00"/>
<circle cx="-5.782104" cy="-0.607724" r="2" fill="#f00"/>
<circle cx="-47.900992" cy="-17.628008" r="2" fill="#f00"/>
<circle cx="-21.184018" cy="-6.957503" r="2" fill="#f00"/>
<circle cx="-7.410209" cy="-1.575089" r="2" fill="#f00"/>
<circle cx="-8.420581" cy="-1.995714" r="2" fill="#f00"/>
<circle cx="-38.010435" cy="-14.284923" r="2" fill="#f00"/>
<circle cx="-22.157583" cy="-7.783291" r="2" fill="#f00"/>
<circle cx="-16.014252" cy="-5.346343" r="2" fill="#f00"/>
<circle cx="-14.856595" cy="-4.959860" r="2" fill="#f00"/>
<circle cx="-1.273567" cy="0.735294" r="2" fill="#f00"/>
<circle cx="8.056050" cy="4.651163" r="2" fill="#f00"/>
<circle cx="-3.000000" cy="0.000000" r="2" fill="#f00"/>
<circle cx="4.819726" cy="3.286034" r="2" fill="#f00"/>
<circle cx="-5.964315" cy="-1.267754" r="2" fill="#f00"/>
<circle cx="-2.941176" cy="0.000000" r="2" fill="#f00"/>
<circle cx="-35.211438" cy="-14.171384" r="2" fill="#f00"/>
<circle cx="2.641533" cy="2.216509" r="2" fill="#f00"/>
<circle cx="-8.157329" cy="-2.516203" r="2" fill="#f00"/>
<circle cx="-7.859971" cy="-2.553859" r="2" fill="#f00"/>
<circle cx="-34.478016" cy="-14.424377" r="2" fill="#f00"/>
<circle cx="-10.705359" cy="-3.896432" r="2" fill="#f00"/>
<circle cx="-0.403226" cy="0.698408" r="2" fill="#f00"/>
<circle cx="-20.233778" cy="-8.218251" r="2" fill="#f00"/>
<circle cx="-21.167092" cy="-8.675092" r="2" fill="#f00"/>
<circle cx="3.343163" cy="2.279330" r="2" fill="#f00"/>
<circle cx="6.007113" cy="3.468208" r="2" fill="#f00"/>
<circle cx="-15.083747" cy="-6.247893" r="2" fill="#f00"/>
<circle cx="0.505051" cy="0.874773" r="2" fill="#f00"/>
<circle cx="-22.559404" cy="-9.937461" r="2" fill="#f00"/>
<circle cx="-1.129944" cy="0.000000" r="2" fill="#f00"/>
<circle cx="5.020437" cy="2.898551" r="2" fill="#f00"/>
<circle cx="4.767112" cy="2.752294" r="2" fill="#f00"/>
<circle cx="-28.364678" cy="-12.995577" r="2" fill="#f00"/>
<circle cx="-7.862805" cy="-3.256880" r="2" fill="#f00"/>
<circle cx="0.316456" cy="0.548117" r="2" fill="#f00"/>
<circle cx="-16.606354" cy="-7.640135" r="2" fill="#f00"/>
<circle cx="-9.321892" cy="-4.150374" r="2" fill="#f00"/>
<circle cx="-47.065538" cy="-22.665568" r="2" fill="#f00"/>
<circle cx="13.814055" cy="7.038612" r="2" fill="#f00"/>
<circle cx="3.092948" cy="1.785714" r="2" fill="#f00"/>
<circle cx="-3.172119" cy="-1.313935" r="2" fill="#f00"/>
<circle cx="-4.392045" cy="-1.955465" r="2" fill="#f00"/>
<circle cx="-15.258344" cy="-7.348031" r="2" fill="#f00"/>
<circle cx="-21.399858" cy="-10.437408" r="2" fill="#f00"/>
<circle cx="-2.686898" cy="-1.196284" r="2" fill="#f00"/>
<circle cx="11.647144" cy="5.934516" r="2" fill="#f00"/>
<circle cx="-11.327738" cy="-5.689004" r="2" fill="#f00"/>
<circle cx="0.000000" cy="0.000000" r="2" fill="#f00"/>
<circle cx="0.000000" cy="0.000000" r="2" fill="#f00"/>
<circle cx="0.000000" cy="0.000000" r="2" fill="#f00"/>
<circle cx="0.000000" cy="0.000000" r="2" fill="#f00"/>
<circle cx="0.000000" cy="0.000000" r="2" fill="#f00"/>
<circle cx="0.000000" cy="0.000000" r="2" fill="#f00"/>
<circle cx="0.000000" cy="0.000000" r="2" fill="#f00"/>
<circle cx="0.000000" cy="0.000000" r="2" fill="#f00"/>
<circle cx="0.000000" cy="0.000000" r="2" fill="#f00"/>
<circle cx="0.000000" cy="0.000000" r="2" fill="#f00"/>
<circle cx="0.000000" cy="0.000000" r="2" fill="#f00"/>
<circle cx="0.000000" cy="0.000000" r="2" fill="#f00"/>
<circle cx="0.000000" cy="0.000000" r="2" fill="#f00"/>
<circle cx="0.000000" cy="0.000000" r="2" fill="#f00"/>
<circle cx="0.000000" cy="0.000000" r="2" fill="#f00"/>
<circle cx="0.000000" cy="0.000000" r="2" fill="#f00"/>
<circle cx="0.000000" cy="0.000000" r="2" fill="#f00"/>
<circle cx="0.000000" cy="0.000000" r="2" fill="#f00"/>
<circle cx="0.000000" cy="0.000000" r="2" fill="#f00"/>
<circle cx="0.000000" cy="0.000000" r="2" fill="#f00"/>
<circle cx="0.000000" cy="0.000000" r="2" fill="#f00"/>
<circle cx="0.000000" cy="0.000000" r="2" fill="#f00"/>
<circle cx="-24.558243" cy="-12.604870" r="2" fill="#f00"/>
<circle cx="-14.378220" cy="-7.412488" r="2" fill="#f00"/>
<circle cx="-1.264271" cy="-0.729927" r="2" fill="#f00"/>
<circle cx="-44.367604" cy="-23.054625" r="2" fill="#f00"/>
<circle cx="-85.153040" cy="-44.327867" r="2" fill="#f00"/>
<circle cx="-8.968388" cy="-4.815922" r="2" fill="#f00"/>
<circle cx="4.777865" cy="2.300899" r="2" fill="#f00"/>
<circle cx="-64.737287" cy="-34.701313" r="2" fill="#f00"/>
<circle cx="6.501837" cy="3.131120" r="2" fill="#f00"/>
<circle cx="-7.673643" cy="-4.430380" r="2" fill="#f00"/>
<circle cx="-2.186532" cy="-1.588609" r="2" fill="#f00"/>
<circle cx="-12.171168" cy="-7.027027" r="2" fill="#f00"/>
<circle cx="-1.532089" cy="-1.285575" r="2" fill="#f00"/>
<circle cx="-50.408798" cy="-27.902407" r="2" fill="#f00"/>
<circle cx="-18.232114" cy="-10.526316" r="2" fill="#f00"/>
<circle cx="-1.246003" cy="-1.246003" r="2" fill="#f00"/>
<circle cx="-4.415016" cy="-3.010107" r="2" fill="#f00"/>
<circle cx="-5.448834" cy="-3.583754" r="2" fill="#f00"/>
<circle cx="-26.073883" cy="-15.053763" r="2" fill="#f00"/>
<circle cx="-8.651552" cy="-5.470910" r="2" fill="#f00"/>
<circle cx="-6.962398" cy="-4.579241" r="2" fill="#f00"/>
<circle cx="-4.445148" cy="-3.229589" r="2" fill="#f00"/>
<circle cx="-7.751949" cy="-5.098537" r="2" fill="#f00"/>
<circle cx="-18.947956" cy="-11.435150" r="2" fill="#f00"/>
<circle cx="-2.946325" cy="-2.472260" r="2" fill="#f00"/>
<circle cx="-8.898687" cy="-5.852758" r="2" fill="#f00"/>
<circle cx="-10.760220" cy="-6.915173" r="2" fill="#f00"/>
<circle cx="-23.810203" cy="-14.306613" r="2" fill="#00f"/>
<circle cx="-4.203197" cy="-3.225226" r="2" fill="#00f"/>
<circle cx="8.365918" cy="3.901092" r="2" fill="#00f"/>
<circle cx="-56.763768" cy="-33.833244" r="2" fill="#00f"/>
<circle cx="-7.159442" cy="-5.201639" r="2" fill="#00f"/>
<circle cx="-36.198416" cy="-22.476112" r="2" fill="#00f"/>
<circle cx="4.129018" cy="1.273633" r="2" fill="#00f"/>
<circle cx="-10.127991" cy="-7.169456" r="2" fill="#00f"/>
<circle cx="-10.278035" cy="-7.275670" r="2" fill="#00f"/>
<circle cx="-27.497396" cy="-17.857018" r="2" fill="#00f"/>
<circle cx="5.753220" cy="2.094001" r="2" fill="#00f"/>
<circle cx="-4.423589" cy="-4.104491" r="2" fill="#00f"/>
<circle cx="-7.700215" cy="-6.196340" r="2" fill="#00f"/>
<circle cx="-36.839262" cy="-24.146667" r="2" fill="#00f"/>
<circle cx="0.666667" cy="-1.154701" r="2" fill="#00f"/>
<circle cx="2.608696" cy="0.000000" r="2" fill="#00f"/>
<circle cx="2.654867" cy="0.000000" r="2" fill="#00f"/>
<circle cx="-1.500000" cy="-2.598076" r="2" fill="#00f"/>
<circle cx="3.812159" cy="0.672186" r="2" fill="#00f"/>
<circle cx="-3.135549" cy="-3.736802" r="2" fill="#00f"/>
<circle cx="-16.711553" cy="-12.404473" r="2" fill="#00f"/>
<circle cx="0.000000" cy="-1.801802" r="2" fill="#00f"/>
<circle cx="-25.381733" cy="-17.967357" r="2" fill="#00f"/>
<circle cx="-7.914103" cy="-6.940482" r="2" fill="#00f"/>
<circle cx="-15.293558" cy="-11.735160" r="2" fill="#00f"/>
<circle cx="8.398905" cy="3.478940" r="2" fill="#00f"/>
<circle cx="-0.388765" cy="-2.204793" r="2" fill="#00f"/>
<circle cx="-32.513867" cy="-23.299108" r="2" fill="#00f"/>
<circle cx="3.296703" cy="0.000000" r="2" fill="#00f"/>
<circle cx="-3.429642" cy="-4.469596" r="2" fill="#00f"/>
<circle cx="6.251411" cy="1.928305" r="2" fill="#00f"/>
<circle cx="-46.082968" cy="-33.131398" r="2" fill="#00f"/>
<circle cx="-7.071068" cy="-7.071068" r="2" fill="#00f"/>
<circle cx="-2.272727" cy="-3.936479" r="2" fill="#00f"/>
<circle cx="-8.081220" cy="-8.081220" r="2" fill="#00f"/>
<circle cx="-10.391052" cy="-9.803452" r="2" fill="#00f"/>
<circle cx="-15.082132" cy="-13.135040" r="2" fill="#00f"/>
<circle cx="-19.834774" cy="-17.069203" r="2" fill="#00f"/>
<circle cx="-11.582760" cy="-11.322033" r="2" fill="#00f"/>
<circle cx="-3.000000" cy="-5.196152" r="2" fill="#00f"/>
<circle cx="6.778427" cy="1.816274" r="2" fill="#00f"/>
<circle cx="-12.974436" cy="-12.974436" r="2" fill="#00f"/>
<circle cx="-23.972414" cy="-21.584858" r="2" fill="#00f"/>
<circle cx="-18.603616" cy="-17.965303" r="2" fill="#00f"/>
<circle cx="-13.574010" cy="-14.387610" r="2" fill="#00f"/>
<circle cx="-11.948761" cy="-13.270443" r="2" fill="#00f"/>
<circle cx="-46.894649" cy="-41.545034" r="2" fill="#00f"/>
<circle cx="-0.000000" cy="-4.395604" r="2" fill="#00f"/>
<circle cx="2.672248" cy="-2.242282" r="2" fill="#00f"/>
<circle cx="1.144507" cy="-3.522432" r="2" fill="#00f"/>
<circle cx="6.385104" cy="0.746312" r="2" fill="#00f"/>
<circle cx="-3.228069" cy="-7.250361" r="2" fill="#00f"/>
<circle cx="-5.208333" cy="-9.021098" r="2" fill="#00f"/>
<circle cx="-5.219780" cy="-9.040925" r="2" fill="#00f"/>
<circle cx="-19.974048" cy="-22.183428" r="2" fill="#00f"/>
<circle cx="3.111190" cy="-2.387300" r="2" fill="#00f"/>
<circle cx="-10.312022" cy="-14.193281" r="2" fill="#00f"/>
<circle cx="0.795335" cy="-4.510570" r="2" fill="#00f"/>
<circle cx="2.537320" cy="-3.023860" r="2" fill="#00f"/>
<circle cx="-8.775892" cy="-13.244150" r="2" fill="#00f"/>
<circle cx="2.147239" cy="-3.719128" r="2" fill="#00f"/>
<circle cx="-2.346572" cy="-7.838096" r="2" fill="#00f"/>
<circle cx="-2.029953" cy="-7.575889" r="2" fill="#00f"/>
<circle cx="0.882957" cy="-5.007497" r="2" fill="#00f"/>
<circle cx="-9.262985" cy="-14.341906" r="2" fill="#00f"/>
<circle cx="-17.164065" cy="-22.841222" r="2" fill="#00f"/>
<circle cx="-26.521903" cy="-32.483434" r="2" fill="#00f"/>
<circle cx="-6.203365" cy="-12.718784" r="2" fill="#00f"/>
<circle cx="-23.403265" cy="-30.096558" r="2" fill="#00f"/>
<circle cx="-11.775456" cy="-19.018015" r="2" fill="#00f"/>
<circle cx="-11.475410" cy="-19.875993" r="2" fill="#00f"/>
<circle cx="4.351426" cy="-4.351426" r="2" fill="#00f"/>
<circle cx="-1.136179" cy="-10.810021" r="2" fill="#00f"/>
<circle cx="-4.374965" cy="-14.613399" r="2" fill="#00f"/>
<circle cx="1.935096" cy="-7.221875" r="2" fill="#00f"/>
<circle cx="0.000000" cy="-9.708738" r="2" fill="#00f"/>
<circle cx="-51.537948" cy="-74.498780" r="2" fill="#00f"/>
<circle cx="6.961628" cy="-1.865362" r="2" fill="#00f"/>
<circle cx="-14.032504" cy="-28.181067" r="2" fill="#00f"/>
<circle cx="2.287903" cy="-8.538571" r="2" fill="#00f"/>
<circle cx="0.562797" cy="-11.814560" r="2" fill="#00f"/>
<circle cx="5.745333" cy="-4.820907" r="2" fill="#00f"/>
<circle cx="-17.186055" cy="-38.600512" r="2" fill="#00f"/>
<circle cx="12.529235" cy="4.560269" r="2" fill="#00f"/>
<circle cx="12.193032" cy="3.961756" r="2" fill="#00f"/>
<circle cx="10.575412" cy="1.392279" r="2" fill="#00f"/>
<circle cx="13.766701" cy="6.419518" r="2" fill="#00f"/>
<circle cx="-8.027576" cy="-31.383961" r="2" fill="#00f"/>
<circle cx="12.387055" cy="3.820900" r="2" fill="#00f"/>
<circle cx="11.035982" cy="1.289921" r="2" fill="#00f"/>
<circle cx="7.872958" cy="-4.545455" r="2" fill="#00f"/>
<circle cx="4.981490" cy="-10.213569" r="2" fill="#00f"/>
<circle cx="8.618353" cy="-3.837138" r="2" fill="#00f"/>
<circle cx="11.024262" cy="0.642090" r="2" fill="#00f"/>
<circle cx="11.713040" cy="1.954561" r="2" fill="#00f"/>
<circle cx="12.186599" cy="2.781512" r="2" fill="#00f"/>
<circle cx="9.063078" cy="-4.226183" r="2" fill="#00f"/>
<circle cx="9.216689" cy="-4.297813" r="2" fill="#00f"/>
<circle cx="8.427260" cy="-6.122763" r="2" fill="#00f"/>
<circle cx="10.288605" cy="-3.744746" r="2" fill="#00f"/>
<circle cx="13.424180" cy="4.886002" r="2" fill="#00f"/>
<circle cx="10.451171" cy="-3.395791" r="2" fill="#00f"/>
<circle cx="9.640227" cy="-6.441394" r="2" fill="#00f"/>
<circle cx="-4.440925" cy="-55.482932" r="2" fill="#00f"/>
<circle cx="12.583512" cy="-1.100915" r="2" fill="#00f"/>
<circle cx="12.463559" cy="-3.339601" r="2" fill="#00f"/>
<circle cx="8.882760" cy="-37.706584" r="2" fill="#00f"/>
<circle cx="14.095389" cy="5.130302" r="2" fill="#00f"/>
<circle cx="13.591426" cy="-34.950295" r="2" fill="#00f"/>
<circle cx="13.977728" cy="-15.254014" r="2" fill="#00f"/>
<circle cx="14.282713" cy="2.007304" r="2" fill="#00f"/>
<circle cx="14.661037" cy="-13.603455" r="2" fill="#00f"/>
<circle cx="14.490105" cy="-1.267720" r="2" fill="#00f"/>
<circle cx="14.670060" cy="1.025830" r="2" fill="#00f"/>
<circle cx="18.005469" cy="-33.771568" r="2" fill="#00f"/>
<circle cx="16.789009" cy="-11.641240" r="2" fill="#00f"/>
<circle cx="17.958267" cy="-17.958267" r="2" fill="#00f"/>
<circle cx="14.543145" cy="5.634044" r="2" fill="#00f"/>
<circle cx="19.302471" cy="-21.207418" r="2" fill="#00f"/>
<circle cx="17.091480" cy="-6.766995" r="2" fill="#00f"/>
<circle cx="17.543888" cy="-1.473201" r="2" fill="#00f"/>
<circle cx="23.158551" cy="-12.912582" r="2" fill="#00f"/>
<circle cx="24.789323" cy="-16.469987" r="2" fill="#00f"/>
<circle cx="24.743583" cy="-14.285714" r="2" fill="#00f"/>
<circle cx="21.660008" cy="-7.542813" r="2" fill="#00f"/>
<circle cx="17.977528" cy="0.000000" r="2" fill="#00f"/>
<circle cx="21.465018" cy="-5.751534" r="2" fill="#00f"/>
<circle cx="26.416687" cy="-10.367786" r="2" fill="#00f"/>
<circle cx="29.733812" cy="-14.108869" r="2" fill="#00f"/>
<circle cx="20.380195" cy="-1.068081" r="2" fill="#00f"/>
<circle cx="26.861483" cy="-8.148342" r="2" fill="#00f"/>
<circle cx="27.302080" cy="-8.421576" r="2" fill="#00f"/>
<circle cx="24.898890" cy="-4.211332" r="2" fill="#00f"/>
<circle cx="20.167207" cy="1.006503" r="2" fill="#00f"/>
<circle cx="28.271000" cy="-7.575192" r="2" fill="#00f"/>
<circle cx="32.298078" cy="-10.080348" r="2" fill="#00f"/>
<circle cx="32.123521" cy="-8.898903" r="2" fill="#00f"/>
<circle cx="16.189664" cy="5.557919" r="2" fill="#00f"/>
<circle cx="52.556517" cy="-25.309885" r="2" fill="#00f"/>
<circle cx="31.159884" cy="-6.983094" r="2" fill="#00f"/>
<circle cx="19.108450" cy="3.231952" r="2" fill="#00f"/>
<circle cx="44.700793" cy="-17.698296" r="2" fill="#00f"/>
<circle cx="25.987688" cy="-2.273628" r="2" fill="#00f"/>
<circle cx="54.967717" cy="-20.501899" r="2" fill="#00f"/>
<circle cx="45.442381" cy="-13.719864" r="2" fill="#00f"/>
<circle cx="22.989108" cy="2.011286" r="2" fill="#00f"/>
<circle cx="22.032108" cy="2.900582" r="2" fill="#00f"/>
<circle cx="40.240828" cy="-7.364065" r="2" fill="#00f"/>
<circle cx="19.498558" cy="4.450419" r="2" fill="#00f"/>
<circle cx="26.402824" cy="1.661125" r="2" fill="#00f"/>
<circle cx="28.285146" cy="1.261266" r="2" fill="#00f"/>
<circle cx="39.232002" cy="-3.294403" r="2" fill="#00f"/>
<circle cx="20.600146" cy="4.616601" r="2" fill="#00f"/>
<circle cx="28.865460" cy="1.163238" r="2" fill="#00f"/>
<circle cx="23.377239" cy="3.702591" r="2" fill="#00f"/>
<circle cx="21.576785" cy="4.586287" r="2" fill="#00f"/>
<circle cx="29.703943" cy="2.226003" r="2" fill="#00f"/>
<circle cx="22.747619" cy="4.835156" r="2" fill="#00f"/>
<circle cx="39.655172" cy="0.000000" r="2" fill="#00f"/>
<circle cx="30.194579" cy="2.936959" r="2" fill="#00f"/>
<circle cx="72.044531" cy="-6.970497" r="2" fill="#00f"/>
<circle cx="25.690637" cy="4.529952" r="2" fill="#00f"/>
<circle cx="42.116307" cy="1.495682" r="2" fill="#00f"/>
<circle cx="34.538258" cy="3.456074" r="2" fill="#00f"/>
<circle cx="57.713842" cy="-0.702800" r="2" fill="#00f"/>
<circle cx="29.954525" cy="4.710129" r="2" fill="#00f"/>
<circle cx="33.048162" cy="4.350873" r="2" fill="#00f"/>
<circle cx="22.463391" cy="6.019048" r="2" fill="#00f"/>
<circle cx="53.643340" cy="1.276950" r="2" fill="#00f"/>
<circle cx="23.595349" cy="6.094598" r="2" fill="#00f"/>
<circle cx="34.556733" cy="4.923141" r="2" fill="#00f"/>
<circle cx="33.949018" cy="5.605006" r="2" fill="#00f"/>
<circle cx="35.038154" cy="5.606501" r="2" fill="#00f"/>
<circle cx="50.859977" cy="4.388413" r="2" fill="#00f"/>
<circle cx="41.968180" cy="5.095860" r="2" fill="#00f"/>
<circle cx="17.237619" cy="7.042342" r="2" fill="#00f"/>
<circle cx="20.605390" cy="6.798973" r="2" fill="#00f"/>
<circle cx="47.358185" cy="4.977546" r="2" fill="#00f"/>
<circle cx="67.739212" cy="3.681800" r="2" fill="#00f"/>
<circle cx="24.738487" cy="6.806969" r="2" fill="#00f"/>
<circle cx="73.478175" cy="5.506428" r="2" fill="#00f"/>
<circle cx="51.916407" cy="6.960667" r="2" fill="#00f"/>
<circle cx="43.360559" cy="7.108603" r="2" fill="#00f"/>
<circle cx="47.006951" cy="7.159319" r="2" fill="#00f"/>
</g>
</svg>