<?xml version="1.0" encoding="utf-8"?>
<svg width="100%" height="100%" viewBox="-110.000000 -110.000000 220.000000 220.000000"
     preserveAspectRatio="xMidYMin meet"
     version="1.1" baseProfile="full" xmlns="http://www.w3.org/2000/svg">
<g style="stroke:#000;stroke-width:0">
<circle cx="0" cy="0" r="100" fill="#eee"/>
<circle cx="-5.572809" cy="1.810715" r="2" fill="#9cb9d8"/>
<circle cx="5.572809" cy="1.810715" r="2" fill="#406886"/>
<circle cx="-3.444185" cy="-4.740514" r="2" fill="#566d7d"/>
<circle cx="3.444185" cy="-4.740514" r="2" fill="#4e4744"/>
<circle cx="0.000000" cy="5.859598" r="2" fill="#85715c"/>
<circle cx="-12.461180" cy="1.810715" r="2" fill="#392b1b"/>
<circle cx="12.461180" cy="1.810715" r="2" fill="#443835"/>
<circle cx="-5.572809" cy="-11.291744" r="2" fill="#22160d"/>
<circle cx="5.572809" cy="-11.291744" r="2" fill="#8c6253"/>
<circle cx="-9.016994" cy="-8.789397" r="2" fill="#a7a497"/>
<circle cx="9.016994" cy="-8.789397" r="2" fill="#66665f"/>
<circle cx="-11.145618" cy="5.859598" r="2" fill="#aaaaa5"/>
<circle cx="11.145618" cy="5.859598" r="2" fill="#4d4d4d"/>
<circle cx="-2.128624" cy="12.410828" r="2" fill="#6e7254"/>
<circle cx="2.128624" cy="12.410828" r="2" fill="#565b5e"/>
<circle cx="-7.701433" cy="10.600113" r="2" fill="#ada7a1"/>
<circle cx="7.701433" cy="10.600113" r="2" fill="#54534f"/>
<circle cx="0.000000" cy="-13.102460" r="2" fill="#5f6668"/>
<circle cx="-12.461180" cy="-4.048883" r="2" fill="#694f34"/>
<circle cx="12.461180" cy="-4.048883" r="2" fill="#887467"/>
<circle cx="-18.033989" cy="0.000000" r="2" fill="#4e4e4e"/>
<circle cx="18.033989" cy="0.000000" r="2" fill="#787571"/>
<circle cx="-14.589803" cy="10.600113" r="2" fill="#66677b"/>
<circle cx="14.589803" cy="10.600113" r="2" fill="#706248"/>
<circle cx="-5.572809" cy="-17.151343" r="2" fill="#b4b6b9"/>
<circle cx="5.572809" cy="-17.151343" r="2" fill="#501e15"/>
<circle cx="-14.589803" cy="-10.600113" r="2" fill="#55524a"/>
<circle cx="14.589803" cy="-10.600113" r="2" fill="#b9b4a8"/>
<circle cx="-5.572809" cy="17.151343" r="2" fill="#5d5c58"/>
<circle cx="5.572809" cy="17.151343" r="2" fill="#585c61"/>
<circle cx="0.000000" cy="-21.200225" r="2" fill="#8e7c53"/>
<circle cx="-12.461180" cy="17.151343" r="2" fill="#15181f"/>
<circle cx="12.461180" cy="17.151343" r="2" fill="#181110"/>
<circle cx="-20.162612" cy="-6.551230" r="2" fill="#837584"/>
<circle cx="20.162612" cy="-6.551230" r="2" fill="#636861"/>
<circle cx="-23.606798" cy="4.048883" r="2" fill="#888072"/>
<circle cx="23.606798" cy="4.048883" r="2" fill="#ccc4c9"/>
<circle cx="-11.145618" cy="-21.200225" r="2" fill="#363f33"/>
<circle cx="11.145618" cy="-21.200225" r="2" fill="#817d83"/>
<circle cx="-16.718427" cy="-17.151343" r="2" fill="#8d715e"/>
<circle cx="16.718427" cy="-17.151343" r="2" fill="#636ba0"/>
<circle cx="-21.478174" cy="10.600113" r="2" fill="#494d5b"/>
<circle cx="21.478174" cy="10.600113" r="2" fill="#65665f"/>
<circle cx="-3.444185" cy="23.702572" r="2" fill="#636666"/>
<circle cx="3.444185" cy="23.702572" r="2" fill="#787878"/>
<circle cx="-18.033989" cy="18.962058" r="2" fill="#76b6ec"/>
<circle cx="18.033989" cy="18.962058" r="2" fill="#595959"/>
<circle cx="-12.461180" cy="23.010941" r="2" fill="#92462b"/>
<circle cx="12.461180" cy="23.010941" r="2" fill="#4c4a6c"/>
<circle cx="-3.444185" cy="-25.940740" r="2" fill="#816f56"/>
<circle cx="3.444185" cy="-25.940740" r="2" fill="#3c3f39"/>
<circle cx="-23.606798" cy="-11.291744" r="2" fill="#523a40"/>
<circle cx="23.606798" cy="-11.291744" r="2" fill="#a58d8f"/>
<circle cx="-25.735421" cy="-4.740514" r="2" fill="#737c3d"/>
<circle cx="25.735421" cy="-4.740514" r="2" fill="#582c01"/>
<circle cx="-29.179607" cy="0.000000" r="2" fill="#41352f"/>
<circle cx="29.179607" cy="0.000000" r="2" fill="#6a6064"/>
<circle cx="-23.606798" cy="17.151343" r="2" fill="#373022"/>
<circle cx="23.606798" cy="17.151343" r="2" fill="#504639"/>
<circle cx="-9.016994" cy="-27.751455" r="2" fill="#b7ac96"/>
<circle cx="9.016994" cy="-27.751455" r="2" fill="#3f3f42"/>
<circle cx="-23.606798" cy="-17.151343" r="2" fill="#55554d"/>
<circle cx="23.606798" cy="-17.151343" r="2" fill="#51574d"/>
<circle cx="-9.016994" cy="27.751455" r="2" fill="#8d8db7"/>
<circle cx="9.016994" cy="27.751455" r="2" fill="#4b4c4e"/>
<circle cx="-13.274242" cy="-27.751455" r="2" fill="#3f3f3f"/>
<circle cx="13.274242" cy="-27.751455" r="2" fill="#707070"/>
<circle cx="-30.495168" cy="4.048883" r="2" fill="#72573d"/>
<circle cx="30.495168" cy="4.048883" r="2" fill="#63787d"/>
<circle cx="-27.050983" cy="14.648995" r="2" fill="#8a7d63"/>
<circle cx="27.050983" cy="14.648995" r="2" fill="#c3ccc8"/>
<circle cx="-22.291236" cy="-21.200225" r="2" fill="#a67977"/>
<circle cx="22.291236" cy="-21.200225" r="2" fill="#5d5d5d"/>
<circle cx="-5.572809" cy="30.253802" r="2" fill="#101010"/>
<circle cx="5.572809" cy="30.253802" r="2" fill="#121211"/>
<circle cx="-18.847051" cy="-25.940740" r="2" fill="#513d30"/>
<circle cx="18.847051" cy="-25.940740" r="2" fill="#483a38"/>
<circle cx="-30.495168" cy="9.908481" r="2" fill="#585e62"/>
<circle cx="30.495168" cy="9.908481" r="2" fill="#565e74"/>
<circle cx="0.000000" cy="32.064518" r="2" fill="#494949"/>
<circle cx="-5.572809" cy="-32.491970" r="2" fill="#6b6b6b"/>
<circle cx="5.572809" cy="-32.491970" r="2" fill="#565a4b"/>
<circle cx="-29.179607" cy="-15.340627" r="2" fill="#878e55"/>
<circle cx="29.179607" cy="-15.340627" r="2" fill="#65635b"/>
<circle cx="-32.623792" cy="-4.740514" r="2" fill="#1e4a71"/>
<circle cx="32.623792" cy="-4.740514" r="2" fill="#735125"/>
<circle cx="-23.606798" cy="23.010941" r="2" fill="#815023"/>
<circle cx="23.606798" cy="23.010941" r="2" fill="#636362"/>
<circle cx="-14.589803" cy="29.562171" r="2" fill="#8a6669"/>
<circle cx="14.589803" cy="29.562171" r="2" fill="#686964"/>
<circle cx="0.000000" cy="-36.540852" r="2" fill="#425973"/>
<circle cx="-21.478174" cy="29.562171" r="2" fill="#5c5b4a"/>
<circle cx="21.478174" cy="29.562171" r="2" fill="#6f7b6e"/>
<circle cx="-16.718427" cy="-32.491970" r="2" fill="#9b9287"/>
<circle cx="16.718427" cy="-32.491970" r="2" fill="#4f5250"/>
<circle cx="-25.735421" cy="-25.940740" r="2" fill="#4b4443"/>
<circle cx="25.735421" cy="-25.940740" r="2" fill="#544f48"/>
<circle cx="-34.752416" cy="-11.291744" r="2" fill="#3d3832"/>
<circle cx="34.752416" cy="-11.291744" r="2" fill="#69563b"/>
<circle cx="-36.067977" cy="5.859598" r="2" fill="#585f0e"/>
<circle cx="36.067977" cy="5.859598" r="2" fill="#758d26"/>
<circle cx="-32.623792" cy="16.459711" r="2" fill="#646b42"/>
<circle cx="32.623792" cy="16.459711" r="2" fill="#b6745a"/>
<circle cx="-5.572809" cy="36.113400" r="2" fill="#be3c32"/>
<circle cx="5.572809" cy="36.113400" r="2" fill="#744131"/>
<circle cx="-38.196601" cy="-6.551230" r="2" fill="#734224"/>
<circle cx="38.196601" cy="-6.551230" r="2" fill="#815343"/>
<circle cx="-5.572809" cy="-38.351568" r="2" fill="#6a5237"/>
<circle cx="5.572809" cy="-38.351568" r="2" fill="#73655b"/>
<circle cx="-34.752416" cy="-17.151343" r="2" fill="#79534f"/>
<circle cx="34.752416" cy="-17.151343" r="2" fill="#5e5a52"/>
<circle cx="-27.050983" cy="27.751455" r="2" fill="#925a23"/>
<circle cx="27.050983" cy="27.751455" r="2" fill="#34312a"/>
<circle cx="-18.033989" cy="34.302685" r="2" fill="#4d5152"/>
<circle cx="18.033989" cy="34.302685" r="2" fill="#aaa89e"/>
<circle cx="-23.606798" cy="-32.491970" r="2" fill="#827b76"/>
<circle cx="23.606798" cy="-32.491970" r="2" fill="#938d8a"/>
<circle cx="-38.196601" cy="12.410828" r="2" fill="#533730"/>
<circle cx="38.196601" cy="12.410828" r="2" fill="#050301"/>
<circle cx="0.000000" cy="40.162283" r="2" fill="#5f6c7a"/>
<circle cx="-14.589803" cy="-39.043200" r="2" fill="#685453"/>
<circle cx="14.589803" cy="-39.043200" r="2" fill="#878889"/>
<circle cx="-32.623792" cy="-25.940740" r="2" fill="#4b5052"/>
<circle cx="32.623792" cy="-25.940740" r="2" fill="#0c0508"/>
<circle cx="-41.640786" cy="1.810715" r="2" fill="#100702"/>
<circle cx="41.640786" cy="1.810715" r="2" fill="#180c0a"/>
<circle cx="-34.752416" cy="23.010941" r="2" fill="#282527"/>
<circle cx="34.752416" cy="23.010941" r="2" fill="#4c525f"/>
<circle cx="-11.145618" cy="40.162283" r="2" fill="#777d8e"/>
<circle cx="11.145618" cy="40.162283" r="2" fill="#8c613d"/>
<circle cx="-41.640786" cy="-4.048883" r="2" fill="#6d6642"/>
<circle cx="41.640786" cy="-4.048883" r="2" fill="#655245"/>
<circle cx="-36.067977" cy="-21.200225" r="2" fill="#65694e"/>
<circle cx="36.067977" cy="-21.200225" r="2" fill="#693932"/>
<circle cx="-31.308230" cy="27.751455" r="2" fill="#82664c"/>
<circle cx="31.308230" cy="27.751455" r="2" fill="#3b2e24"/>
<circle cx="-16.718427" cy="38.351568" r="2" fill="#93674f"/>
<circle cx="16.718427" cy="38.351568" r="2" fill="#8a7a83"/>
<circle cx="-9.016994" cy="-40.853915" r="2" fill="#8c8274"/>
<circle cx="9.016994" cy="-40.853915" r="2" fill="#59534d"/>
<circle cx="-3.444185" cy="-44.902798" r="2" fill="#695537"/>
<circle cx="3.444185" cy="-44.902798" r="2" fill="#341b24"/>
<circle cx="-41.640786" cy="-17.151343" r="2" fill="#595e5e"/>
<circle cx="41.640786" cy="-17.151343" r="2" fill="#5e5744"/>
<circle cx="-43.769410" cy="-10.600113" r="2" fill="#907a58"/>
<circle cx="43.769410" cy="-10.600113" r="2" fill="#976f35"/>
<circle cx="-29.179607" cy="34.302685" r="2" fill="#5b5154"/>
<circle cx="29.179607" cy="34.302685" r="2" fill="#7b6b49"/>
<circle cx="-23.606798" cy="38.351568" r="2" fill="#445057"/>
<circle cx="23.606798" cy="38.351568" r="2" fill="#69636b"/>
<circle cx="-43.769410" cy="10.600113" r="2" fill="#5f524b"/>
<circle cx="43.769410" cy="10.600113" r="2" fill="#738a94"/>
<circle cx="-41.640786" cy="17.151343" r="2" fill="#775159"/>
<circle cx="41.640786" cy="17.151343" r="2" fill="#875947"/>
<circle cx="-23.606798" cy="-38.351568" r="2" fill="#6d625c"/>
<circle cx="23.606798" cy="-38.351568" r="2" fill="#876952"/>
<circle cx="-29.179607" cy="-34.302685" r="2" fill="#736c5c"/>
<circle cx="29.179607" cy="-34.302685" r="2" fill="#685250"/>
<circle cx="-3.444185" cy="44.902798" r="2" fill="#44403b"/>
<circle cx="3.444185" cy="44.902798" r="2" fill="#605e66"/>
<circle cx="-36.881039" cy="29.562171" r="2" fill="#5b360b"/>
<circle cx="36.881039" cy="29.562171" r="2" fill="#414f5d"/>
<circle cx="-12.461180" cy="-45.594429" r="2" fill="#462b23"/>
<circle cx="12.461180" cy="-45.594429" r="2" fill="#624e4f"/>
<circle cx="-39.512163" cy="-25.940740" r="2" fill="#6b533e"/>
<circle cx="39.512163" cy="-25.940740" r="2" fill="#7f381a"/>
<circle cx="-47.213595" cy="-2.238167" r="2" fill="#927c3f"/>
<circle cx="47.213595" cy="-2.238167" r="2" fill="#3e362b"/>
<circle cx="-16.718427" cy="44.211166" r="2" fill="#736a61"/>
<circle cx="16.718427" cy="44.211166" r="2" fill="#40380b"/>
<circle cx="-41.640786" cy="23.010941" r="2" fill="#3a2010"/>
<circle cx="41.640786" cy="23.010941" r="2" fill="#8c8483"/>
<circle cx="-9.016994" cy="46.713513" r="2" fill="#565660"/>
<circle cx="9.016994" cy="46.713513" r="2" fill="#664f38"/>
<circle cx="-34.752416" cy="-32.491970" r="2" fill="#7e6347"/>
<circle cx="34.752416" cy="-32.491970" r="2" fill="#717171"/>
<circle cx="-47.213595" cy="5.859598" r="2" fill="#a98d6a"/>
<circle cx="47.213595" cy="5.859598" r="2" fill="#59575b"/>
<circle cx="-20.162612" cy="-43.092082" r="2" fill="#a2c2d7"/>
<circle cx="20.162612" cy="-43.092082" r="2" fill="#77615a"/>
<circle cx="-34.752416" cy="38.351568" r="2" fill="#87462c"/>
<circle cx="34.752416" cy="38.351568" r="2" fill="#48422a"/>
<circle cx="-25.735421" cy="44.902798" r="2" fill="#759045"/>
<circle cx="25.735421" cy="44.902798" r="2" fill="#705b53"/>
<circle cx="-5.572809" cy="-51.454028" r="2" fill="#c8a487"/>
<circle cx="5.572809" cy="-51.454028" r="2" fill="#4b362f"/>
<circle cx="-47.213595" cy="-21.200225" r="2" fill="#605046"/>
<circle cx="47.213595" cy="-21.200225" r="2" fill="#222222"/>
<circle cx="-50.657781" cy="-10.600113" r="2" fill="#333333"/>
<circle cx="50.657781" cy="-10.600113" r="2" fill="#897a7f"/>
<circle cx="-25.735421" cy="-44.902798" r="2" fill="#766a6f"/>
<circle cx="25.735421" cy="-44.902798" r="2" fill="#4c3c2a"/>
<circle cx="-50.657781" cy="10.600113" r="2" fill="#17181c"/>
<circle cx="50.657781" cy="10.600113" r="2" fill="#1f2f53"/>
<circle cx="-47.213595" cy="21.200225" r="2" fill="#48311d"/>
<circle cx="47.213595" cy="21.200225" r="2" fill="#6b6761"/>
<circle cx="-5.572809" cy="51.454028" r="2" fill="#8f9297"/>
<circle cx="5.572809" cy="51.454028" r="2" fill="#9e9086"/>
<circle cx="-34.752416" cy="-38.351568" r="2" fill="#65625c"/>
<circle cx="34.752416" cy="-38.351568" r="2" fill="#405450"/>
<circle cx="-52.786405" cy="1.810715" r="2" fill="#50190e"/>
<circle cx="52.786405" cy="1.810715" r="2" fill="#181817"/>
<circle cx="-43.769410" cy="29.562171" r="2" fill="#616164"/>
<circle cx="43.769410" cy="29.562171" r="2" fill="#413d40"/>
<circle cx="-14.589803" cy="50.762396" r="2" fill="#6f6769"/>
<circle cx="14.589803" cy="50.762396" r="2" fill="#886180"/>
<circle cx="-18.033989" cy="-49.643312" r="2" fill="#7c817d"/>
<circle cx="18.033989" cy="-49.643312" r="2" fill="#6a4a45"/>
<circle cx="-41.640786" cy="-32.491970" r="2" fill="#211d17"/>
<circle cx="41.640786" cy="-32.491970" r="2" fill="#517430"/>
<circle cx="-20.162612" cy="48.951680" r="2" fill="#624654"/>
<circle cx="20.162612" cy="48.951680" r="2" fill="#838383"/>
<circle cx="-12.461180" cy="-51.454028" r="2" fill="#936f47"/>
<circle cx="12.461180" cy="-51.454028" r="2" fill="#585350"/>
<circle cx="-52.786405" cy="-4.048883" r="2" fill="#594949"/>
<circle cx="52.786405" cy="-4.048883" r="2" fill="#1d1506"/>
<circle cx="-45.084972" cy="-27.751455" r="2" fill="#723405"/>
<circle cx="45.084972" cy="-27.751455" r="2" fill="#5d5f54"/>
<circle cx="-40.325225" cy="34.302685" r="2" fill="#637043"/>
<circle cx="40.325225" cy="34.302685" r="2" fill="#906a5d"/>
<circle cx="-32.623792" cy="44.902798" r="2" fill="#5e5e59"/>
<circle cx="32.623792" cy="44.902798" r="2" fill="#b0803c"/>
<circle cx="0.000000" cy="-55.502910" r="2" fill="#a37352"/>
<circle cx="-52.786405" cy="-17.151343" r="2" fill="#424242"/>
<circle cx="52.786405" cy="-17.151343" r="2" fill="#362519"/>
<circle cx="-52.786405" cy="17.151343" r="2" fill="#8b785a"/>
<circle cx="52.786405" cy="17.151343" r="2" fill="#694e40"/>
<circle cx="0.000000" cy="55.502910" r="2" fill="#8c6640"/>
<circle cx="-32.623792" cy="-44.902798" r="2" fill="#6d6159"/>
<circle cx="32.623792" cy="-44.902798" r="2" fill="#5f5354"/>
<circle cx="-11.145618" cy="-55.502910" r="2" fill="#8d7f71"/>
<circle cx="11.145618" cy="-55.502910" r="2" fill="#6c6f78"/>
<circle cx="-56.230590" cy="-6.551230" r="2" fill="#4d3a2e"/>
<circle cx="56.230590" cy="-6.551230" r="2" fill="#5a5a5a"/>
<circle cx="-41.640786" cy="38.351568" r="2" fill="#b1a5b5"/>
<circle cx="41.640786" cy="38.351568" r="2" fill="#312327"/>
<circle cx="-23.606798" cy="51.454028" r="2" fill="#6b3e29"/>
<circle cx="23.606798" cy="51.454028" r="2" fill="#514948"/>
<circle cx="-49.342219" cy="-27.751455" r="2" fill="#846172"/>
<circle cx="49.342219" cy="-27.751455" r="2" fill="#886f78"/>
<circle cx="-56.230590" cy="12.410828" r="2" fill="#6f5530"/>
<circle cx="56.230590" cy="12.410828" r="2" fill="#406294"/>
<circle cx="-52.786405" cy="23.010941" r="2" fill="#888d98"/>
<circle cx="52.786405" cy="23.010941" r="2" fill="#201f1b"/>
<circle cx="-29.179607" cy="-49.643312" r="2" fill="#161415"/>
<circle cx="29.179607" cy="-49.643312" r="2" fill="#584530"/>
<circle cx="-38.196601" cy="-43.092082" r="2" fill="#9f9f99"/>
<circle cx="38.196601" cy="-43.092082" r="2" fill="#b29373"/>
<circle cx="-5.572809" cy="57.313626" r="2" fill="#3a71ab"/>
<circle cx="5.572809" cy="57.313626" r="2" fill="#151515"/>
<circle cx="-58.359214" cy="5.859598" r="2" fill="#82854a"/>
<circle cx="58.359214" cy="5.859598" r="2" fill="#726b55"/>
<circle cx="-12.461180" cy="57.313626" r="2" fill="#84786e"/>
<circle cx="12.461180" cy="57.313626" r="2" fill="#95867a"/>
<circle cx="-50.657781" cy="29.562171" r="2" fill="#787063"/>
<circle cx="50.657781" cy="29.562171" r="2" fill="#545451"/>
<circle cx="-23.606798" cy="-53.692195" r="2" fill="#5f5c54"/>
<circle cx="23.606798" cy="-53.692195" r="2" fill="#967f6a"/>
<circle cx="-43.769410" cy="-39.043200" r="2" fill="#717e78"/>
<circle cx="43.769410" cy="-39.043200" r="2" fill="#727977"/>
<circle cx="-41.640786" cy="44.211166" r="2" fill="#897164"/>
<circle cx="41.640786" cy="44.211166" r="2" fill="#8c989e"/>
<circle cx="-7.701433" cy="-60.243425" r="2" fill="#83593f"/>
<circle cx="7.701433" cy="-60.243425" r="2" fill="#665857"/>
<circle cx="-59.674775" cy="-11.291744" r="2" fill="#3e4347"/>
<circle cx="59.674775" cy="-11.291744" r="2" fill="#72787f"/>
<circle cx="-29.179607" cy="53.264743" r="2" fill="#bf964c"/>
<circle cx="29.179607" cy="53.264743" r="2" fill="#963e5c"/>
<circle cx="-54.915028" cy="-25.940740" r="2" fill="#855865"/>
<circle cx="54.915028" cy="-25.940740" r="2" fill="#af752a"/>
<circle cx="-60.487837" cy="12.410828" r="2" fill="#636668"/>
<circle cx="60.487837" cy="12.410828" r="2" fill="#63704f"/>
<circle cx="-6.888371" cy="61.362508" r="2" fill="#4b4a4b"/>
<circle cx="6.888371" cy="61.362508" r="2" fill="#607671"/>
<circle cx="-30.495168" cy="-53.692195" r="2" fill="#8e7e6f"/>
<circle cx="30.495168" cy="-53.692195" r="2" fill="#b2817c"/>
<circle cx="-41.640786" cy="-45.594429" r="2" fill="#65574e"/>
<circle cx="41.640786" cy="-45.594429" r="2" fill="#848386"/>
<circle cx="-56.230590" cy="25.513288" r="2" fill="#5d6159"/>
<circle cx="56.230590" cy="25.513288" r="2" fill="#487f93"/>
<circle cx="-61.803399" cy="-4.740514" r="2" fill="#969fa7"/>
<circle cx="61.803399" cy="-4.740514" r="2" fill="#898d8a"/>
<circle cx="-47.213595" cy="40.162283" r="2" fill="#909897"/>
<circle cx="47.213595" cy="40.162283" r="2" fill="#7f6a59"/>
<circle cx="-23.606798" cy="57.313626" r="2" fill="#706e6c"/>
<circle cx="23.606798" cy="57.313626" r="2" fill="#a67f5d"/>
<circle cx="-14.589803" cy="-60.243425" r="2" fill="#655349"/>
<circle cx="14.589803" cy="-60.243425" r="2" fill="#584b3c"/>
<circle cx="-52.786405" cy="-32.491970" r="2" fill="#5b4f42"/>
<circle cx="52.786405" cy="-32.491970" r="2" fill="#1e0a03"/>
<circle cx="-59.674775" cy="-17.151343" r="2" fill="#171211"/>
<circle cx="59.674775" cy="-17.151343" r="2" fill="#7b96b7"/>
<circle cx="-38.196601" cy="48.951680" r="2" fill="#8692a6"/>
<circle cx="38.196601" cy="48.951680" r="2" fill="#7e726c"/>
<circle cx="-34.752416" cy="51.454028" r="2" fill="#767571"/>
<circle cx="34.752416" cy="51.454028" r="2" fill="#88684e"/>
<circle cx="-2.128624" cy="-62.054140" r="2" fill="#ad998a"/>
<circle cx="2.128624" cy="-62.054140" r="2" fill="#7e7256"/>
<circle cx="-58.359214" cy="-21.200225" r="2" fill="#5b5858"/>
<circle cx="58.359214" cy="-21.200225" r="2" fill="#564d3e"/>
<circle cx="-18.033989" cy="61.362508" r="2" fill="#9ba1ac"/>
<circle cx="18.033989" cy="61.362508" r="2" fill="#8a7651"/>
<circle cx="-21.478174" cy="-60.243425" r="2" fill="#5d413c"/>
<circle cx="21.478174" cy="-60.243425" r="2" fill="#5a3503"/>
<circle cx="-63.932023" cy="1.810715" r="2" fill="#482f6a"/>
<circle cx="63.932023" cy="1.810715" r="2" fill="#6a5a53"/>
<circle cx="-52.786405" cy="36.113400" r="2" fill="#71b2b8"/>
<circle cx="52.786405" cy="36.113400" r="2" fill="#97a09a"/>
<circle cx="-50.657781" cy="-39.043200" r="2" fill="#675f39"/>
<circle cx="50.657781" cy="-39.043200" r="2" fill="#946147"/>
<circle cx="-63.932023" cy="17.151343" r="2" fill="#84534a"/>
<circle cx="63.932023" cy="17.151343" r="2" fill="#a39ca3"/>
<circle cx="-61.803399" cy="23.702572" r="2" fill="#4b2e15"/>
<circle cx="61.803399" cy="23.702572" r="2" fill="#6e4f44"/>
<circle cx="-36.067977" cy="-55.502910" r="2" fill="#5a4b47"/>
<circle cx="36.067977" cy="-55.502910" r="2" fill="#626d5b"/>
<circle cx="-41.640786" cy="-51.454028" r="2" fill="#635d55"/>
<circle cx="41.640786" cy="-51.454028" r="2" fill="#7d5333"/>
<circle cx="-3.444185" cy="66.103023" r="2" fill="#50453b"/>
<circle cx="3.444185" cy="66.103023" r="2" fill="#989f99"/>
<circle cx="-59.674775" cy="30.253802" r="2" fill="#8288b6"/>
<circle cx="59.674775" cy="30.253802" r="2" fill="#795080"/>
<circle cx="-30.495168" cy="-59.551793" r="2" fill="#5c5b6a"/>
<circle cx="30.495168" cy="-59.551793" r="2" fill="#786b60"/>
<circle cx="-10.332556" cy="66.103023" r="2" fill="#5e5e64"/>
<circle cx="10.332556" cy="66.103023" r="2" fill="#697785"/>
<circle cx="-47.213595" cy="-47.405145" r="2" fill="#898e88"/>
<circle cx="47.213595" cy="-47.405145" r="2" fill="#686a66"/>
<circle cx="-66.060646" cy="10.600113" r="2" fill="#9c570e"/>
<circle cx="66.060646" cy="10.600113" r="2" fill="#7b4c2f"/>
<circle cx="-43.769410" cy="50.762396" r="2" fill="#090706"/>
<circle cx="43.769410" cy="50.762396" r="2" fill="#342318"/>
<circle cx="-34.752416" cy="57.313626" r="2" fill="#0a0504"/>
<circle cx="34.752416" cy="57.313626" r="2" fill="#525c62"/>
<circle cx="-5.572809" cy="-66.794655" r="2" fill="#406d97"/>
<circle cx="5.572809" cy="-66.794655" r="2" fill="#2f3039"/>
<circle cx="-61.803399" cy="-25.940740" r="2" fill="#6c717e"/>
<circle cx="61.803399" cy="-25.940740" r="2" fill="#a39291"/>
<circle cx="-65.247584" cy="-15.340627" r="2" fill="#91836a"/>
<circle cx="65.247584" cy="-15.340627" r="2" fill="#7f744d"/>
<circle cx="-29.179607" cy="61.362508" r="2" fill="#544a44"/>
<circle cx="29.179607" cy="61.362508" r="2" fill="#828885"/>
<circle cx="-12.461180" cy="-66.794655" r="2" fill="#352c28"/>
<circle cx="12.461180" cy="-66.794655" r="2" fill="#6e6d6f"/>
<circle cx="-59.674775" cy="-32.491970" r="2" fill="#dc9a09"/>
<circle cx="59.674775" cy="-32.491970" r="2" fill="#78624a"/>
<circle cx="-49.342219" cy="46.713513" r="2" fill="#89742c"/>
<circle cx="49.342219" cy="46.713513" r="2" fill="#7c6430"/>
<circle cx="-67.376208" cy="-8.789397" r="2" fill="#5b5648"/>
<circle cx="67.376208" cy="-8.789397" r="2" fill="#433b35"/>
<circle cx="-69.504832" cy="5.859598" r="2" fill="#786c71"/>
<circle cx="69.504832" cy="5.859598" r="2" fill="#745941"/>
<circle cx="-59.674775" cy="36.113400" r="2" fill="#666c5b"/>
<circle cx="59.674775" cy="36.113400" r="2" fill="#72525b"/>
<circle cx="-27.050983" cy="-64.292308" r="2" fill="#6c6d69"/>
<circle cx="27.050983" cy="-64.292308" r="2" fill="#8a7d73"/>
<circle cx="-52.786405" cy="-45.594429" r="2" fill="#998e85"/>
<circle cx="52.786405" cy="-45.594429" r="2" fill="#576b70"/>
<circle cx="-15.905365" cy="67.913738" r="2" fill="#40494d"/>
<circle cx="15.905365" cy="67.913738" r="2" fill="#657a84"/>
<circle cx="-70.820393" cy="1.810715" r="2" fill="#a3a3b6"/>
<circle cx="70.820393" cy="1.810715" r="2" fill="#4e453e"/>
<circle cx="-20.162612" cy="67.913738" r="2" fill="#7d8c39"/>
<circle cx="20.162612" cy="67.913738" r="2" fill="#625d67"/>
<circle cx="-23.606798" cy="-66.794655" r="2" fill="#56585b"/>
<circle cx="23.606798" cy="-66.794655" r="2" fill="#766247"/>
<circle cx="-56.230590" cy="-43.092082" r="2" fill="#a58c74"/>
<circle cx="56.230590" cy="-43.092082" r="2" fill="#b3864b"/>
<circle cx="-58.359214" cy="40.162283" r="2" fill="#595e6d"/>
<circle cx="58.359214" cy="40.162283" r="2" fill="#8f5d40"/>
<circle cx="-18.033989" cy="-68.605370" r="2" fill="#463b38"/>
<circle cx="18.033989" cy="-68.605370" r="2" fill="#363047"/>
<circle cx="-70.820393" cy="-4.048883" r="2" fill="#9e5368"/>
<circle cx="70.820393" cy="-4.048883" r="2" fill="#6a8121"/>
<circle cx="-59.674775" cy="-38.351568" r="2" fill="#503251"/>
<circle cx="59.674775" cy="-38.351568" r="2" fill="#5e6686"/>
<circle cx="-54.915028" cy="44.902798" r="2" fill="#793826"/>
<circle cx="54.915028" cy="44.902798" r="2" fill="#3b322b"/>
<circle cx="-25.735421" cy="66.103023" r="2" fill="#796951"/>
<circle cx="25.735421" cy="66.103023" r="2" fill="#4a4131"/>
<circle cx="-70.820393" cy="17.151343" r="2" fill="#d8c4bc"/>
<circle cx="70.820393" cy="17.151343" r="2" fill="#62554a"/>
<circle cx="-38.196601" cy="-62.054140" r="2" fill="#726252"/>
<circle cx="38.196601" cy="-62.054140" r="2" fill="#635e57"/>
<circle cx="-47.213595" cy="-55.502910" r="2" fill="#745c6f"/>
<circle cx="47.213595" cy="-55.502910" r="2" fill="#716e6e"/>
<circle cx="-67.376208" cy="27.751455" r="2" fill="#663e36"/>
<circle cx="67.376208" cy="27.751455" r="2" fill="#6c3c21"/>
<circle cx="-5.572809" cy="72.654253" r="2" fill="#5d3725"/>
<circle cx="5.572809" cy="72.654253" r="2" fill="#97784d"/>
<circle cx="-45.898034" cy="57.313626" r="2" fill="#926f4b"/>
<circle cx="45.898034" cy="57.313626" r="2" fill="#9f7b54"/>
<circle cx="-40.325225" cy="61.362508" r="2" fill="#85745d"/>
<circle cx="40.325225" cy="61.362508" r="2" fill="#987b71"/>
<circle cx="-3.444185" cy="-73.345885" r="2" fill="#616464"/>
<circle cx="3.444185" cy="-73.345885" r="2" fill="#8f4c46"/>
<circle cx="-70.820393" cy="-19.389510" r="2" fill="#84807d"/>
<circle cx="70.820393" cy="-19.389510" r="2" fill="#af9871"/>
<circle cx="-68.691770" cy="-25.940740" r="2" fill="#8a703c"/>
<circle cx="68.691770" cy="-25.940740" r="2" fill="#487480"/>
<circle cx="-12.461180" cy="-72.654253" r="2" fill="#a28f29"/>
<circle cx="12.461180" cy="-72.654253" r="2" fill="#8d7d39"/>
<circle cx="-72.949017" cy="-10.600113" r="2" fill="#6b716f"/>
<circle cx="72.949017" cy="-10.600113" r="2" fill="#75513b"/>
<circle cx="-72.949017" cy="10.600113" r="2" fill="#382b1f"/>
<circle cx="72.949017" cy="10.600113" r="2" fill="#465742"/>
<circle cx="-52.786405" cy="51.454028" r="2" fill="#a0908d"/>
<circle cx="52.786405" cy="51.454028" r="2" fill="#604d44"/>
<circle cx="-32.623792" cy="66.103023" r="2" fill="#56524e"/>
<circle cx="32.623792" cy="66.103023" r="2" fill="#3a2323"/>
<circle cx="-32.623792" cy="-66.103023" r="2" fill="#5f7477"/>
<circle cx="32.623792" cy="-66.103023" r="2" fill="#777b78"/>
<circle cx="-52.786405" cy="-51.454028" r="2" fill="#857866"/>
<circle cx="52.786405" cy="-51.454028" r="2" fill="#2b2615"/>
<circle cx="-65.247584" cy="-34.302685" r="2" fill="#746436"/>
<circle cx="65.247584" cy="-34.302685" r="2" fill="#6d4d33"/>
<circle cx="-65.247584" cy="34.302685" r="2" fill="#691d24"/>
<circle cx="65.247584" cy="34.302685" r="2" fill="#4f513d"/>
<circle cx="-12.461180" cy="72.654253" r="2" fill="#877b75"/>
<circle cx="12.461180" cy="72.654253" r="2" fill="#7b7a6c"/>
<circle cx="-70.820393" cy="23.010941" r="2" fill="#737020"/>
<circle cx="70.820393" cy="23.010941" r="2" fill="#815f4a"/>
<circle cx="0.000000" cy="74.464968" r="2" fill="#868887"/>
<circle cx="-43.769410" cy="-60.243425" r="2" fill="#7c7f83"/>
<circle cx="43.769410" cy="-60.243425" r="2" fill="#737070"/>
<circle cx="-23.606798" cy="72.654253" r="2" fill="#734a42"/>
<circle cx="23.606798" cy="72.654253" r="2" fill="#34323b"/>
<circle cx="-23.606798" cy="-72.654253" r="2" fill="#634a4e"/>
<circle cx="23.606798" cy="-72.654253" r="2" fill="#5e4442"/>
<circle cx="-61.803399" cy="-44.902798" r="2" fill="#585952"/>
<circle cx="61.803399" cy="-44.902798" r="2" fill="#4f3540"/>
<circle cx="-76.393202" cy="0.000000" r="2" fill="#325041"/>
<circle cx="76.393202" cy="0.000000" r="2" fill="#3d3d36"/>
<circle cx="-61.803399" cy="44.902798" r="2" fill="#524943"/>
<circle cx="61.803399" cy="44.902798" r="2" fill="#3f2f3b"/>
<circle cx="-52.786405" cy="57.313626" r="2" fill="#968169"/>
<circle cx="52.786405" cy="57.313626" r="2" fill="#979fa9"/>
<circle cx="-38.196601" cy="67.913738" r="2" fill="#8f9491"/>
<circle cx="38.196601" cy="67.913738" r="2" fill="#8a8675"/>
<circle cx="-9.016994" cy="-77.394767" r="2" fill="#bd8e8b"/>
<circle cx="9.016994" cy="-77.394767" r="2" fill="#7f4d51"/>
<circle cx="-76.393202" cy="-15.340627" r="2" fill="#67656e"/>
<circle cx="76.393202" cy="-15.340627" r="2" fill="#628ea5"/>
<circle cx="-70.820393" cy="-32.491970" r="2" fill="#5a5b6b"/>
<circle cx="70.820393" cy="-32.491970" r="2" fill="#8c8c8c"/>
<circle cx="-72.949017" cy="29.562171" r="2" fill="#3a383b"/>
<circle cx="72.949017" cy="29.562171" r="2" fill="#75747e"/>
<circle cx="-41.640786" cy="-66.794655" r="2" fill="#939496"/>
<circle cx="41.640786" cy="-66.794655" r="2" fill="#a5a8aa"/>
<circle cx="-76.393202" cy="18.962058" r="2" fill="#90755d"/>
<circle cx="76.393202" cy="18.962058" r="2" fill="#564e3f"/>
<circle cx="-5.572809" cy="78.513851" r="2" fill="#12141f"/>
<circle cx="5.572809" cy="78.513851" r="2" fill="#2c2947"/>
<circle cx="-50.657781" cy="-60.243425" r="2" fill="#7b3f08"/>
<circle cx="50.657781" cy="-60.243425" r="2" fill="#98acba"/>
<circle cx="-51.470843" cy="61.362508" r="2" fill="#564742"/>
<circle cx="51.470843" cy="61.362508" r="2" fill="#48280f"/>
<circle cx="-42.453848" cy="67.913738" r="2" fill="#7a6946"/>
<circle cx="42.453848" cy="67.913738" r="2" fill="#8d7b6e"/>
<circle cx="-74.264579" cy="-29.989622" r="2" fill="#688746"/>
<circle cx="74.264579" cy="-29.989622" r="2" fill="#6d545c"/>
<circle cx="-5.572809" cy="-79.897114" r="2" fill="#535353"/>
<circle cx="5.572809" cy="-79.897114" r="2" fill="#928d83"/>
<circle cx="-77.708764" cy="-19.389510" r="2" fill="#8e7577"/>
<circle cx="77.708764" cy="-19.389510" r="2" fill="#86878e"/>
<circle cx="-14.589803" cy="-79.205483" r="2" fill="#a2abac"/>
<circle cx="14.589803" cy="-79.205483" r="2" fill="#7f7a73"/>
<circle cx="-34.752416" cy="72.654253" r="2" fill="#727e88"/>
<circle cx="34.752416" cy="72.654253" r="2" fill="#898b86"/>
<circle cx="-34.752416" cy="-72.654253" r="2" fill="#6f7679"/>
<circle cx="34.752416" cy="-72.654253" r="2" fill="#583823"/>
<circle cx="-58.359214" cy="-55.502910" r="2" fill="#996427"/>
<circle cx="58.359214" cy="-55.502910" r="2" fill="#7f786f"/>
<circle cx="-70.820393" cy="-38.351568" r="2" fill="#ecd8ba"/>
<circle cx="70.820393" cy="-38.351568" r="2" fill="#ad7e6c"/>
<circle cx="-79.837388" cy="-10.600113" r="2" fill="#776a60"/>
<circle cx="79.837388" cy="-10.600113" r="2" fill="#7b4d47"/>
<circle cx="-79.837388" cy="10.600113" r="2" fill="#585858"/>
<circle cx="79.837388" cy="10.600113" r="2" fill="#c4785c"/>
<circle cx="-70.820393" cy="38.351568" r="2" fill="#63446f"/>
<circle cx="70.820393" cy="38.351568" r="2" fill="#a7a595"/>
<circle cx="-58.359214" cy="55.502910" r="2" fill="#7c6c4a"/>
<circle cx="58.359214" cy="55.502910" r="2" fill="#231c21"/>
<circle cx="-14.589803" cy="79.205483" r="2" fill="#dc5d30"/>
<circle cx="14.589803" cy="79.205483" r="2" fill="#988963"/>
<circle cx="0.000000" cy="-81.707830" r="2" fill="#76734c"/>
<circle cx="-48.026657" cy="66.103023" r="2" fill="#a6725f"/>
<circle cx="48.026657" cy="66.103023" r="2" fill="#56727a"/>
<circle cx="-77.708764" cy="-25.249108" r="2" fill="#7f7a72"/>
<circle cx="77.708764" cy="-25.249108" r="2" fill="#b48280"/>
<circle cx="-27.050983" cy="-77.394767" r="2" fill="#6b6664"/>
<circle cx="27.050983" cy="-77.394767" r="2" fill="#955e45"/>
<circle cx="-65.247584" cy="-49.643312" r="2" fill="#a5715b"/>
<circle cx="65.247584" cy="-49.643312" r="2" fill="#5d423d"/>
<circle cx="-81.966011" cy="1.810715" r="2" fill="#525b5c"/>
<circle cx="81.966011" cy="1.810715" r="2" fill="#60717e"/>
<circle cx="-67.376208" cy="46.713513" r="2" fill="#953f40"/>
<circle cx="67.376208" cy="46.713513" r="2" fill="#817b8a"/>
<circle cx="-23.606798" cy="78.513851" r="2" fill="#989297"/>
<circle cx="23.606798" cy="78.513851" r="2" fill="#815d44"/>
<circle cx="-21.478174" cy="-79.205483" r="2" fill="#856e60"/>
<circle cx="21.478174" cy="-79.205483" r="2" fill="#3e3e3e"/>
<circle cx="-81.966011" cy="-4.048883" r="2" fill="#302b2e"/>
<circle cx="81.966011" cy="-4.048883" r="2" fill="#6d6653"/>
<circle cx="-63.932023" cy="51.454028" r="2" fill="#8b896b"/>
<circle cx="63.932023" cy="51.454028" r="2" fill="#607d65"/>
<circle cx="-29.179607" cy="76.703136" r="2" fill="#6e8c3b"/>
<circle cx="29.179607" cy="76.703136" r="2" fill="#78802a"/>
<circle cx="-68.691770" cy="-44.902798" r="2" fill="#8ba8c0"/>
<circle cx="68.691770" cy="-44.902798" r="2" fill="#5e9fc0"/>
<circle cx="-31.308230" cy="-77.394767" r="2" fill="#3c2511"/>
<circle cx="31.308230" cy="-77.394767" r="2" fill="#3e4046"/>
<circle cx="-63.932023" cy="-53.692195" r="2" fill="#1e3939"/>
<circle cx="63.932023" cy="-53.692195" r="2" fill="#745041"/>
<circle cx="-70.820393" cy="44.211166" r="2" fill="#3f3c34"/>
<circle cx="70.820393" cy="44.211166" r="2" fill="#90b6c2"/>
<circle cx="-83.281573" cy="5.859598" r="2" fill="#6f6b4f"/>
<circle cx="83.281573" cy="5.859598" r="2" fill="#857b53"/>
<circle cx="-20.162612" cy="81.016198" r="2" fill="#846449"/>
<circle cx="20.162612" cy="81.016198" r="2" fill="#dfe0e3"/>
<circle cx="-41.640786" cy="-72.654253" r="2" fill="#3b3f39"/>
<circle cx="41.640786" cy="-72.654253" r="2" fill="#8f836e"/>
<circle cx="-56.230590" cy="-62.054140" r="2" fill="#7f6652"/>
<circle cx="56.230590" cy="-62.054140" r="2" fill="#ab9b8c"/>
<circle cx="-81.966011" cy="17.151343" r="2" fill="#524d44"/>
<circle cx="81.966011" cy="17.151343" r="2" fill="#c67583"/>
<circle cx="-76.393202" cy="34.302685" r="2" fill="#9a8f80"/>
<circle cx="76.393202" cy="34.302685" r="2" fill="#557689"/>
<circle cx="-9.016994" cy="83.254365" r="2" fill="#566868"/>
<circle cx="9.016994" cy="83.254365" r="2" fill="#646663"/>
<circle cx="-3.444185" cy="85.065081" r="2" fill="#7f7854"/>
<circle cx="3.444185" cy="85.065081" r="2" fill="#82844c"/>
<circle cx="-52.786405" cy="-66.794655" r="2" fill="#4c5353"/>
<circle cx="52.786405" cy="-66.794655" r="2" fill="#79755e"/>
<circle cx="-81.966011" cy="23.010941" r="2" fill="#ada89d"/>
<circle cx="81.966011" cy="23.010941" r="2" fill="#907769"/>
<circle cx="-79.837388" cy="29.562171" r="2" fill="#955128"/>
<circle cx="79.837388" cy="29.562171" r="2" fill="#cc796b"/>
<circle cx="-47.213595" cy="-70.843537" r="2" fill="#877860"/>
<circle cx="47.213595" cy="-70.843537" r="2" fill="#8c9ea6"/>
<circle cx="-18.033989" cy="-83.945997" r="2" fill="#c8bfb3"/>
<circle cx="18.033989" cy="-83.945997" r="2" fill="#846636"/>
<circle cx="-74.264579" cy="-43.092082" r="2" fill="#a89760"/>
<circle cx="74.264579" cy="-43.092082" r="2" fill="#775e4c"/>
<circle cx="-85.410197" cy="-8.789397" r="2" fill="#79817b"/>
<circle cx="85.410197" cy="-8.789397" r="2" fill="#7a8284"/>
<circle cx="-63.932023" cy="57.313626" r="2" fill="#7f7545"/>
<circle cx="63.932023" cy="57.313626" r="2" fill="#816050"/>
<circle cx="-34.752416" cy="78.513851" r="2" fill="#4e3f34"/>
<circle cx="34.752416" cy="78.513851" r="2" fill="#96685c"/>
<circle cx="-5.572809" cy="-85.756713" r="2" fill="#735034"/>
<circle cx="5.572809" cy="-85.756713" r="2" fill="#786c66"/>
<circle cx="-83.281573" cy="-21.200225" r="2" fill="#3a2c25"/>
<circle cx="83.281573" cy="-21.200225" r="2" fill="#afb1b1"/>
<circle cx="-54.915028" cy="66.103023" r="2" fill="#9d8e75"/>
<circle cx="54.915028" cy="66.103023" r="2" fill="#472b22"/>
<circle cx="-45.898034" cy="72.654253" r="2" fill="#a98781"/>
<circle cx="45.898034" cy="72.654253" r="2" fill="#946a79"/>
<circle cx="-79.837388" cy="-31.800338" r="2" fill="#767d87"/>
<circle cx="79.837388" cy="-31.800338" r="2" fill="#272522"/>
<circle cx="-36.881039" cy="-79.205483" r="2" fill="#585c5c"/>
<circle cx="36.881039" cy="-79.205483" r="2" fill="#969286"/>
<circle cx="-63.932023" cy="-59.551793" r="2" fill="#676b71"/>
<circle cx="63.932023" cy="-59.551793" r="2" fill="#794325"/>
<circle cx="-86.725758" cy="10.600113" r="2" fill="#7a766b"/>
<circle cx="86.725758" cy="10.600113" r="2" fill="#9e9e99"/>
<circle cx="-76.393202" cy="42.400451" r="2" fill="#7caac6"/>
<circle cx="76.393202" cy="42.400451" r="2" fill="#8a8c86"/>
<circle cx="-16.718427" cy="85.756713" r="2" fill="#858079"/>
<circle cx="16.718427" cy="85.756713" r="2" fill="#3c403b"/>
<circle cx="-25.735421" cy="85.065081" r="2" fill="#54302c"/>
<circle cx="25.735421" cy="85.065081" r="2" fill="#533e2e"/>
<circle cx="-29.179607" cy="-83.945997" r="2" fill="#a29d9b"/>
<circle cx="29.179607" cy="-83.945997" r="2" fill="#3e3638"/>
<circle cx="-88.854382" cy="1.810715" r="2" fill="#a27f58"/>
<circle cx="88.854382" cy="1.810715" r="2" fill="#7a5735"/>
<circle cx="-72.949017" cy="50.762396" r="2" fill="#58525d"/>
<circle cx="72.949017" cy="50.762396" r="2" fill="#9e9e9d"/>
<circle cx="-70.820393" cy="-53.692195" r="2" fill="#e9753b"/>
<circle cx="70.820393" cy="-53.692195" r="2" fill="#b29525"/>
<circle cx="-38.196601" cy="81.016198" r="2" fill="#767269"/>
<circle cx="38.196601" cy="81.016198" r="2" fill="#816963"/>
<circle cx="-88.854382" cy="-11.291744" r="2" fill="#473f36"/>
<circle cx="88.854382" cy="-11.291744" r="2" fill="#90979e"/>
<circle cx="-65.247584" cy="61.362508" r="2" fill="#768c99"/>
<circle cx="65.247584" cy="61.362508" r="2" fill="#999e94"/>
<circle cx="-16.718427" cy="-87.994880" r="2" fill="#af7a59"/>
<circle cx="16.718427" cy="-87.994880" r="2" fill="#a67a26"/>
<circle cx="-78.521826" cy="-43.092082" r="2" fill="#60513b"/>
<circle cx="78.521826" cy="-43.092082" r="2" fill="#3c3c37"/>
<circle cx="-85.410197" cy="-27.751455" r="2" fill="#4f504a"/>
<circle cx="85.410197" cy="-27.751455" r="2" fill="#7b7c7b"/>
<circle cx="-85.410197" cy="27.751455" r="2" fill="#6b1a0d"/>
<circle cx="85.410197" cy="27.751455" r="2" fill="#5d4a55"/>
<circle cx="-52.786405" cy="72.654253" r="2" fill="#7f7f78"/>
<circle cx="52.786405" cy="72.654253" r="2" fill="#63676c"/>
<circle cx="0.000000" cy="-89.805595" r="2" fill="#615d5a"/>
<circle cx="0.000000" cy="89.805595" r="2" fill="#8d9490"/>
<circle cx="-52.786405" cy="-72.654253" r="2" fill="#565355"/>
<circle cx="52.786405" cy="-72.654253" r="2" fill="#857355"/>
<circle cx="-11.145618" cy="-89.805595" r="2" fill="#888780"/>
<circle cx="11.145618" cy="-89.805595" r="2" fill="#6f625c"/>
<circle cx="-43.769410" cy="-79.205483" r="2" fill="#737166"/>
<circle cx="43.769410" cy="-79.205483" r="2" fill="#724b27"/>
<circle cx="-61.803399" cy="-66.103023" r="2" fill="#785f3a"/>
<circle cx="61.803399" cy="-66.103023" r="2" fill="#745140"/>
<circle cx="-81.966011" cy="-38.351568" r="2" fill="#805a4d"/>
<circle cx="81.966011" cy="-38.351568" r="2" fill="#a1805c"/>
<circle cx="-88.854382" cy="-17.151343" r="2" fill="#928e85"/>
<circle cx="88.854382" cy="-17.151343" r="2" fill="#7a5735"/>
<circle cx="-88.854382" cy="17.151343" r="2" fill="#c74740"/>
<circle cx="88.854382" cy="17.151343" r="2" fill="#af7b4a"/>
<circle cx="-81.966011" cy="38.351568" r="2" fill="#8c6713"/>
<circle cx="81.966011" cy="38.351568" r="2" fill="#493815"/>
<circle cx="-61.803399" cy="66.103023" r="2" fill="#9a9283"/>
<circle cx="61.803399" cy="66.103023" r="2" fill="#8b877d"/>
<circle cx="-43.769410" cy="79.205483" r="2" fill="#b2927a"/>
<circle cx="43.769410" cy="79.205483" r="2" fill="#a98660"/>
<circle cx="-11.145618" cy="89.805595" r="2" fill="#607366"/>
<circle cx="11.145618" cy="89.805595" r="2" fill="#90897d"/>
<circle cx="-32.623792" cy="85.065081" r="2" fill="#5a564c"/>
<circle cx="32.623792" cy="85.065081" r="2" fill="#9facb9"/>
<circle cx="-23.606798" cy="-87.994880" r="2" fill="#958d82"/>
<circle cx="23.606798" cy="-87.994880" r="2" fill="#81766d"/>
<circle cx="-76.393202" cy="-49.643312" r="2" fill="#84a4a9"/>
<circle cx="76.393202" cy="-49.643312" r="2" fill="#69655d"/>
<circle cx="-90.983006" cy="-4.740514" r="2" fill="#010e19"/>
<circle cx="90.983006" cy="-4.740514" r="2" fill="#a44e4c"/>
<circle cx="-70.820393" cy="57.313626" r="2" fill="#9e8e73"/>
<circle cx="70.820393" cy="57.313626" r="2" fill="#6fa2b1"/>
<circle cx="-40.325225" cy="-83.945997" r="2" fill="#81858a"/>
<circle cx="40.325225" cy="-83.945997" r="2" fill="#726c6a"/>
<circle cx="-67.376208" cy="-64.292308" r="2" fill="#7f766e"/>
<circle cx="67.376208" cy="-64.292308" r="2" fill="#706562"/>
<circle cx="-16.718427" cy="91.616311" r="2" fill="#916b58"/>
<circle cx="16.718427" cy="91.616311" r="2" fill="#786252"/>
<circle cx="-92.298567" cy="12.410828" r="2" fill="#67737c"/>
<circle cx="92.298567" cy="12.410828" r="2" fill="#c59277"/>
<circle cx="-81.966011" cy="44.211166" r="2" fill="#120e0f"/>
<circle cx="81.966011" cy="44.211166" r="2" fill="#715b43"/>
<circle cx="-87.538820" cy="34.302685" r="2" fill="#868287"/>
<circle cx="87.538820" cy="34.302685" r="2" fill="#7e7765"/>
<circle cx="-50.657781" cy="-79.205483" r="2" fill="#b6966c"/>
<circle cx="50.657781" cy="-79.205483" r="2" fill="#334237"/>
<circle cx="-90.983006" cy="23.702572" r="2" fill="#8d8579"/>
<circle cx="90.983006" cy="23.702572" r="2" fill="#95774e"/>
<circle cx="-5.572809" cy="93.854478" r="2" fill="#96a0ac"/>
<circle cx="5.572809" cy="93.854478" r="2" fill="#4a3920"/>
<circle cx="-59.674775" cy="-72.654253" r="2" fill="#5a3a0a"/>
<circle cx="59.674775" cy="-72.654253" r="2" fill="#4a412f"/>
<circle cx="-72.949017" cy="-60.243425" r="2" fill="#28211d"/>
<circle cx="72.949017" cy="-60.243425" r="2" fill="#575654"/>
<circle cx="-23.606798" cy="91.616311" r="2" fill="#697d83"/>
<circle cx="23.606798" cy="91.616311" r="2" fill="#75767b"/>
<circle cx="-3.444185" cy="-94.546110" r="2" fill="#688f90"/>
<circle cx="3.444185" cy="-94.546110" r="2" fill="#bfb198"/>
<circle cx="-34.752416" cy="-87.994880" r="2" fill="#a09a8f"/>
<circle cx="34.752416" cy="-87.994880" r="2" fill="#4f586b"/>
<circle cx="-88.854382" cy="-32.491970" r="2" fill="#ac896b"/>
<circle cx="88.854382" cy="-32.491970" r="2" fill="#a88c72"/>
<circle cx="-90.983006" cy="-25.940740" r="2" fill="#918076"/>
<circle cx="90.983006" cy="-25.940740" r="2" fill="#fadabd"/>
<circle cx="-94.427191" cy="5.859598" r="2" fill="#63722c"/>
<circle cx="94.427191" cy="5.859598" r="2" fill="#646559"/>
<circle cx="-79.837388" cy="50.762396" r="2" fill="#767798"/>
<circle cx="79.837388" cy="50.762396" r="2" fill="#6e7c6a"/>
<circle cx="-58.359214" cy="74.464968" r="2" fill="#694e2a"/>
<circle cx="58.359214" cy="74.464968" r="2" fill="#2d1705"/>
<circle cx="-52.786405" cy="78.513851" r="2" fill="#a7784c"/>
<circle cx="52.786405" cy="78.513851" r="2" fill="#716f4f"/>
<circle cx="-16.718427" cy="-93.854478" r="2" fill="#ab8254"/>
<circle cx="16.718427" cy="-93.854478" r="2" fill="#9d9586"/>
<circle cx="-41.640786" cy="85.756713" r="2" fill="#6a655c"/>
<circle cx="41.640786" cy="85.756713" r="2" fill="#9e9683"/>
<circle cx="-94.427191" cy="-13.102460" r="2" fill="#1f2605"/>
<circle cx="94.427191" cy="-13.102460" r="2" fill="#61523f"/>
<circle cx="-84.094635" cy="-44.902798" r="2" fill="#515935"/>
<circle cx="84.094635" cy="-44.902798" r="2" fill="#64614d"/>
<circle cx="-68.691770" cy="66.103023" r="2" fill="#9b736c"/>
<circle cx="68.691770" cy="66.103023" r="2" fill="#706252"/>
<circle cx="-49.342219" cy="83.254365" r="2" fill="#906f5f"/>
<circle cx="49.342219" cy="83.254365" r="2" fill="#4f595b"/>
<circle cx="-63.932023" cy="72.654253" r="2" fill="#667f7d"/>
<circle cx="63.932023" cy="72.654253" r="2" fill="#665749"/>
<circle cx="-9.016994" cy="-96.356825" r="2" fill="#978974"/>
<circle cx="9.016994" cy="-96.356825" r="2" fill="#7186a4"/>
<circle cx="-88.854382" cy="-38.351568" r="2" fill="#9cacc5"/>
<circle cx="88.854382" cy="-38.351568" r="2" fill="#6a674c"/>
<circle cx="-94.427191" cy="-21.200225" r="2" fill="#6d6a67"/>
<circle cx="94.427191" cy="-21.200225" r="2" fill="#6e6a65"/>
<circle cx="-70.820393" cy="-66.794655" r="2" fill="#454341"/>
<circle cx="70.820393" cy="-66.794655" r="2" fill="#ba7c8c"/>
<circle cx="-96.555815" cy="12.410828" r="2" fill="#9b9695"/>
<circle cx="96.555815" cy="12.410828" r="2" fill="#897566"/>
<circle cx="-85.410197" cy="46.713513" r="2" fill="#816c68"/>
<circle cx="85.410197" cy="46.713513" r="2" fill="#52514e"/>
<circle cx="-18.033989" cy="95.665193" r="2" fill="#575e40"/>
<circle cx="18.033989" cy="95.665193" r="2" fill="#85755c"/>
<circle cx="-41.640786" cy="-87.994880" r="2" fill="#314851"/>
<circle cx="41.640786" cy="-87.994880" r="2" fill="#877e73"/>
<circle cx="-93.111629" cy="30.253802" r="2" fill="#3e392e"/>
<circle cx="93.111629" cy="30.253802" r="2" fill="#7b7568"/>
<circle cx="0.000000" cy="97.903361" r="2" fill="#4b4136"/>
<circle cx="-57.546152" cy="-79.205483" r="2" fill="#4a5549"/>
<circle cx="57.546152" cy="-79.205483" r="2" fill="#848480"/>
<circle cx="-25.735421" cy="-94.546110" r="2" fill="#787f89"/>
<circle cx="25.735421" cy="-94.546110" r="2" fill="#6d6f74"/>
<circle cx="-81.966011" cy="-53.692195" r="2" fill="#534232"/>
<circle cx="81.966011" cy="-53.692195" r="2" fill="#90795c"/>
<circle cx="-97.871376" cy="-4.740514" r="2" fill="#607aa0"/>
<circle cx="97.871376" cy="-4.740514" r="2" fill="#4b5f34"/>
<circle cx="-76.393202" cy="61.362508" r="2" fill="#b88c52"/>
<circle cx="76.393202" cy="61.362508" r="2" fill="#7f662b"/>
<circle cx="-34.752416" cy="91.616311" r="2" fill="#e37b4b"/>
<circle cx="34.752416" cy="91.616311" r="2" fill="#b3a27a"/>
<circle cx="-5.572809" cy="99.714076" r="2" fill="#adaaa6"/>
<circle cx="5.572809" cy="99.714076" r="2" fill="#72665a"/>
<circle cx="-96.555815" cy="25.513288" r="2" fill="#613e2e"/>
<circle cx="96.555815" cy="25.513288" r="2" fill="#5d625b"/>
<circle cx="-54.101966" cy="-83.945997" r="2" fill="#8c5351"/>
<circle cx="54.101966" cy="-83.945997" r="2" fill="#a87d5a"/>
<circle cx="-63.118961" cy="-77.394767" r="2" fill="#616664"/>
<circle cx="63.118961" cy="-77.394767" r="2" fill="#6b6b36"/>
<circle cx="-93.111629" cy="36.113400" r="2" fill="#494949"/>
<circle cx="93.111629" cy="36.113400" r="2" fill="#858226"/>
<circle cx="-32.623792" cy="-94.546110" r="2" fill="#986a52"/>
<circle cx="32.623792" cy="-94.546110" r="2" fill="#ba7e1b"/>
<circle cx="-79.837388" cy="-60.243425" r="2" fill="#7a6637"/>
<circle cx="79.837388" cy="-60.243425" r="2" fill="#9b856b"/>
<circle cx="-100.000000" cy="1.810715" r="2" fill="#685b59"/>
<circle cx="100.000000" cy="1.810715" r="2" fill="#543b49"/>
<circle cx="-81.966011" cy="57.313626" r="2" fill="#48280e"/>
<circle cx="81.966011" cy="57.313626" r="2" fill="#804005"/>
<circle cx="-29.179607" cy="95.665193" r="2" fill="#481b07"/>
<circle cx="29.179607" cy="95.665193" r="2" fill="#080e55"/>
<circle cx="-41.640786" cy="91.616311" r="2" fill="#5e7fa8"/>
<circle cx="41.640786" cy="91.616311" r="2" fill="#e1e6e9"/>
<circle cx="-100.000000" cy="-11.291744" r="2" fill="#aba293"/>
<circle cx="100.000000" cy="-11.291744" r="2" fill="#8e7565"/>
</g>
</svg>