<?xml version="1.0" encoding="utf-8"?>
<svg width="100%" height="100%" viewBox="-110.000000 -110.000000 220.000000 220.000000"
     preserveAspectRatio="xMidYMin meet"
     version="1.1" baseProfile="full" xmlns="http://www.w3.org/2000/svg">
<g style="stroke:#000;stroke-width:0">
<circle cx="0" cy="0" r="100" fill="#eee"/>
<circle cx="-58.937128" cy="85.996389" r="2" fill="#527531"/>
<circle cx="58.937128" cy="85.996389" r="2" fill="#824105"/>
<circle cx="-54.299406" cy="82.626886" r="2" fill="#758d26"/>
<circle cx="54.299406" cy="82.626886" r="2" fill="#49280e"/>
<circle cx="63.574851" cy="82.626886" r="2" fill="#733505"/>
<circle cx="-38.196601" cy="79.257383" r="2" fill="#40390b"/>
<circle cx="38.196601" cy="79.257383" r="2" fill="#9e580f"/>
<circle cx="-57.165676" cy="78.681803" r="2" fill="#64732b"/>
<circle cx="-51.433135" cy="78.681803" r="2" fill="#698020"/>
<circle cx="-45.700594" cy="78.681803" r="2" fill="#1f2705"/>
<circle cx="45.700594" cy="78.681803" r="2" fill="#773d07"/>
<circle cx="51.433135" cy="78.681803" r="2" fill="#4a290f"/>
<circle cx="57.165676" cy="78.681803" r="2" fill="#954d11"/>
<circle cx="31.787426" cy="77.174915" r="2" fill="#714b27"/>
<circle cx="-61.803399" cy="77.174915" r="2" fill="#759045"/>
<circle cx="61.803399" cy="77.174915" r="2" fill="#481b07"/>
<circle cx="-41.062872" cy="75.312300" r="2" fill="#595f0e"/>
<circle cx="41.062872" cy="75.312300" r="2" fill="#582c01"/>
<circle cx="-36.425149" cy="73.805412" r="2" fill="#858226"/>
<circle cx="36.425149" cy="73.805412" r="2" fill="#915923"/>
<circle cx="-19.645709" cy="73.229833" r="2" fill="#a67a27"/>
<circle cx="19.645709" cy="73.229833" r="2" fill="#9a6427"/>
<circle cx="-28.921155" cy="73.229833" r="2" fill="#dc9a09"/>
<circle cx="28.921155" cy="73.229833" r="2" fill="#5d380b"/>
<circle cx="-58.937128" cy="73.229833" r="2" fill="#6e8c3b"/>
<circle cx="-53.204588" cy="73.229833" r="2" fill="#7d8c39"/>
<circle cx="-43.929142" cy="73.229833" r="2" fill="#78802a"/>
<circle cx="43.929142" cy="73.229833" r="2" fill="#804f23"/>
<circle cx="53.204588" cy="73.229833" r="2" fill="#2f1806"/>
<circle cx="58.937128" cy="73.229833" r="2" fill="#110702"/>
<circle cx="-48.566865" cy="71.722945" r="2" fill="#6c6c37"/>
<circle cx="48.566865" cy="71.722945" r="2" fill="#4d2f15"/>
<circle cx="-24.283432" cy="69.860330" r="2" fill="#1d1506"/>
<circle cx="24.283432" cy="69.860330" r="2" fill="#b07c4a"/>
<circle cx="-28.921155" cy="68.353442" r="2" fill="#c0954a"/>
<circle cx="-19.645709" cy="68.353442" r="2" fill="#5b3b0a"/>
<circle cx="19.645709" cy="68.353442" r="2" fill="#5c3603"/>
<circle cx="28.921155" cy="68.353442" r="2" fill="#7b5835"/>
<circle cx="-53.204588" cy="68.353442" r="2" fill="#747c3d"/>
<circle cx="-43.929142" cy="68.353442" r="2" fill="#8d7d39"/>
<circle cx="-34.653696" cy="68.353442" r="2" fill="#7f662b"/>
<circle cx="-4.637723" cy="68.353442" r="2" fill="#976f35"/>
<circle cx="4.637723" cy="68.353442" r="2" fill="#b4874c"/>
<circle cx="34.653696" cy="68.353442" r="2" fill="#49321d"/>
<circle cx="43.929142" cy="68.353442" r="2" fill="#3d2612"/>
<circle cx="53.204588" cy="68.353442" r="2" fill="#945027"/>
<circle cx="-60.708581" cy="67.777862" r="2" fill="#688746"/>
<circle cx="-12.141716" cy="67.777862" r="2" fill="#ba7e1b"/>
<circle cx="12.141716" cy="67.777862" r="2" fill="#af752a"/>
<circle cx="60.708581" cy="67.777862" r="2" fill="#1d0a03"/>
<circle cx="-16.779439" cy="66.270975" r="2" fill="#846636"/>
<circle cx="16.779439" cy="66.270975" r="2" fill="#745125"/>
<circle cx="-56.070858" cy="64.408359" r="2" fill="#515934"/>
<circle cx="-41.062872" cy="64.408359" r="2" fill="#747021"/>
<circle cx="-37.519966" cy="64.408359" r="2" fill="#b39626"/>
<circle cx="-7.503993" cy="64.408359" r="2" fill="#4a391f"/>
<circle cx="7.503993" cy="64.408359" r="2" fill="#3a2c1b"/>
<circle cx="37.519966" cy="64.408359" r="2" fill="#7e5433"/>
<circle cx="41.062872" cy="64.408359" r="2" fill="#7b4c2e"/>
<circle cx="56.070858" cy="64.408359" r="2" fill="#3b2010"/>
<circle cx="-32.882244" cy="62.901472" r="2" fill="#483816"/>
<circle cx="-27.149703" cy="62.901472" r="2" fill="#7d6430"/>
<circle cx="-21.417162" cy="62.901472" r="2" fill="#886e3a"/>
<circle cx="-2.866270" cy="62.901472" r="2" fill="#b0813d"/>
<circle cx="2.866270" cy="62.901472" r="2" fill="#b88c52"/>
<circle cx="21.417162" cy="62.901472" r="2" fill="#6a5035"/>
<circle cx="27.149703" cy="62.901472" r="2" fill="#8c6741"/>
<circle cx="32.882244" cy="62.901472" r="2" fill="#795534"/>
<circle cx="-45.700594" cy="62.901472" r="2" fill="#828549"/>
<circle cx="45.700594" cy="62.901472" r="2" fill="#724124"/>
<circle cx="-51.433135" cy="62.901472" r="2" fill="#62693f"/>
<circle cx="51.433135" cy="62.901472" r="2" fill="#7a4426"/>
<circle cx="-58.937128" cy="62.325892" r="2" fill="#4c6035"/>
<circle cx="-13.913169" cy="62.325892" r="2" fill="#785f3a"/>
<circle cx="13.913169" cy="62.325892" r="2" fill="#ab8255"/>
<circle cx="58.937128" cy="62.325892" r="2" fill="#e9753b"/>
<circle cx="-63.574851" cy="60.819005" r="2" fill="#637043"/>
<circle cx="63.574851" cy="60.819005" r="2" fill="#81391a"/>
<circle cx="-30.015973" cy="58.956389" r="2" fill="#927c3e"/>
<circle cx="0.000000" cy="58.956389" r="2" fill="#a38058"/>
<circle cx="30.015973" cy="58.956389" r="2" fill="#a7784c"/>
<circle cx="-39.291419" cy="58.956389" r="2" fill="#a28f2a"/>
<circle cx="-9.275446" cy="58.956389" r="2" fill="#98784d"/>
<circle cx="9.275446" cy="58.956389" r="2" fill="#6a5237"/>
<circle cx="39.291419" cy="58.956389" r="2" fill="#755236"/>
<circle cx="-48.566865" cy="58.956389" r="2" fill="#655d37"/>
<circle cx="48.566865" cy="58.956389" r="2" fill="#583823"/>
<circle cx="-58.937128" cy="57.449502" r="2" fill="#575d3f"/>
<circle cx="-19.645709" cy="57.449502" r="2" fill="#786744"/>
<circle cx="-13.913169" cy="57.449502" r="2" fill="#94764e"/>
<circle cx="13.913169" cy="57.449502" r="2" fill="#947048"/>
<circle cx="19.645709" cy="57.449502" r="2" fill="#9e7a53"/>
<circle cx="58.937128" cy="57.449502" r="2" fill="#6c3b22"/>
<circle cx="-34.653696" cy="55.586886" r="2" fill="#746436"/>
<circle cx="-28.921155" cy="55.586886" r="2" fill="#796637"/>
<circle cx="-4.637723" cy="55.586886" r="2" fill="#70552f"/>
<circle cx="4.637723" cy="55.586886" r="2" fill="#594631"/>
<circle cx="28.921155" cy="55.586886" r="2" fill="#94704c"/>
<circle cx="34.653696" cy="55.586886" r="2" fill="#8c613d"/>
<circle cx="-49.661683" cy="55.586886" r="2" fill="#83844c"/>
<circle cx="-43.929142" cy="55.586886" r="2" fill="#2b2615"/>
<circle cx="43.929142" cy="55.586886" r="2" fill="#372619"/>
<circle cx="49.661683" cy="55.586886" r="2" fill="#22150d"/>
<circle cx="-15.007987" cy="54.079999" r="2" fill="#695537"/>
<circle cx="15.007987" cy="54.079999" r="2" fill="#7c6246"/>
<circle cx="-24.283432" cy="54.079999" r="2" fill="#7a6a48"/>
<circle cx="24.283432" cy="54.079999" r="2" fill="#674f38"/>
<circle cx="-63.574851" cy="54.079999" r="2" fill="#626f4f"/>
<circle cx="63.574851" cy="54.079999" r="2" fill="#dc5c2f"/>
<circle cx="-54.299406" cy="54.079999" r="2" fill="#6f6d4d"/>
<circle cx="54.299406" cy="54.079999" r="2" fill="#090503"/>
<circle cx="0.000000" cy="52.217383" r="2" fill="#756046"/>
<circle cx="-28.921155" cy="50.710496" r="2" fill="#8e7c53"/>
<circle cx="-4.637723" cy="50.710496" r="2" fill="#867354"/>
<circle cx="4.637723" cy="50.710496" r="2" fill="#4d3d2b"/>
<circle cx="28.921155" cy="50.710496" r="2" fill="#73583d"/>
<circle cx="-49.661683" cy="50.710496" r="2" fill="#817747"/>
<circle cx="49.661683" cy="50.710496" r="2" fill="#82583e"/>
<circle cx="-42.157689" cy="50.134916" r="2" fill="#47412a"/>
<circle cx="-36.425149" cy="50.134916" r="2" fill="#a99860"/>
<circle cx="-17.874257" cy="50.134916" r="2" fill="#6a573b"/>
<circle cx="-12.141716" cy="50.134916" r="2" fill="#917b58"/>
<circle cx="12.141716" cy="50.134916" r="2" fill="#aa8760"/>
<circle cx="17.874257" cy="50.134916" r="2" fill="#090705"/>
<circle cx="36.425149" cy="50.134916" r="2" fill="#6d4c33"/>
<circle cx="42.157689" cy="50.134916" r="2" fill="#342317"/>
<circle cx="-60.708581" cy="50.134916" r="2" fill="#252d21"/>
<circle cx="60.708581" cy="50.134916" r="2" fill="#e47b4b"/>
<circle cx="-56.070858" cy="48.628028" r="2" fill="#878e55"/>
<circle cx="-22.511980" cy="48.628028" r="2" fill="#8b7650"/>
<circle cx="-7.503993" cy="48.628028" r="2" fill="#af9870"/>
<circle cx="7.503993" cy="48.628028" r="2" fill="#715b42"/>
<circle cx="22.511980" cy="48.628028" r="2" fill="#382b1e"/>
<circle cx="56.070858" cy="48.628028" r="2" fill="#86462b"/>
<circle cx="-46.795412" cy="46.765413" r="2" fill="#77734c"/>
<circle cx="-31.787426" cy="46.765413" r="2" fill="#7a6a48"/>
<circle cx="31.787426" cy="46.765413" r="2" fill="#a97d59"/>
<circle cx="46.795412" cy="46.765413" r="2" fill="#74503a"/>
<circle cx="-27.149703" cy="45.258526" r="2" fill="#49412e"/>
<circle cx="-2.866270" cy="45.258526" r="2" fill="#b7976c"/>
<circle cx="2.866270" cy="45.258526" r="2" fill="#a78b69"/>
<circle cx="27.149703" cy="45.258526" r="2" fill="#836348"/>
<circle cx="-51.433135" cy="45.258526" r="2" fill="#6e7153"/>
<circle cx="51.433135" cy="45.258526" r="2" fill="#905e41"/>
<circle cx="-10.370264" cy="44.682946" r="2" fill="#716349"/>
<circle cx="10.370264" cy="44.682946" r="2" fill="#a17f5c"/>
<circle cx="-43.929142" cy="44.682946" r="2" fill="#6e6643"/>
<circle cx="-34.653696" cy="44.682946" r="2" fill="#352f21"/>
<circle cx="-19.645709" cy="44.682946" r="2" fill="#7f7155"/>
<circle cx="19.645709" cy="44.682946" r="2" fill="#745840"/>
<circle cx="34.653696" cy="44.682946" r="2" fill="#88684e"/>
<circle cx="43.929142" cy="44.682946" r="2" fill="#a57554"/>
<circle cx="-58.937128" cy="44.682946" r="2" fill="#4f513d"/>
<circle cx="58.937128" cy="44.682946" r="2" fill="#92462b"/>
<circle cx="-39.291419" cy="43.176058" r="2" fill="#7f744d"/>
<circle cx="39.291419" cy="43.176058" r="2" fill="#825e44"/>
<circle cx="-15.007987" cy="41.313443" r="2" fill="#786950"/>
<circle cx="15.007987" cy="41.313443" r="2" fill="#84684d"/>
<circle cx="-63.574851" cy="41.313443" r="2" fill="#475843"/>
<circle cx="63.574851" cy="41.313443" r="2" fill="#603826"/>
<circle cx="-53.204588" cy="39.806555" r="2" fill="#6b674c"/>
<circle cx="-43.929142" cy="39.806555" r="2" fill="#7d7651"/>
<circle cx="-34.653696" cy="39.806555" r="2" fill="#867b54"/>
<circle cx="-25.378250" cy="39.806555" r="2" fill="#998963"/>
<circle cx="-19.645709" cy="39.806555" r="2" fill="#b4a279"/>
<circle cx="-10.370264" cy="39.806555" r="2" fill="#827157"/>
<circle cx="-4.637723" cy="39.806555" r="2" fill="#5f4f3a"/>
<circle cx="4.637723" cy="39.806555" r="2" fill="#79624a"/>
<circle cx="10.370264" cy="39.806555" r="2" fill="#524131"/>
<circle cx="19.645709" cy="39.806555" r="2" fill="#3b2f24"/>
<circle cx="25.378250" cy="39.806555" r="2" fill="#a67f5d"/>
<circle cx="34.653696" cy="39.806555" r="2" fill="#553f2f"/>
<circle cx="43.929142" cy="39.806555" r="2" fill="#af7a59"/>
<circle cx="53.204588" cy="39.806555" r="2" fill="#050302"/>
<circle cx="-58.937128" cy="39.806555" r="2" fill="#374033"/>
<circle cx="58.937128" cy="39.806555" r="2" fill="#946147"/>
<circle cx="0.000000" cy="36.437052" r="2" fill="#8c795b"/>
<circle cx="-57.842311" cy="36.437052" r="2" fill="#66694e"/>
<circle cx="-48.566865" cy="36.437052" r="2" fill="#8b896b"/>
<circle cx="-39.291419" cy="36.437052" r="2" fill="#6f6a4e"/>
<circle cx="-30.015973" cy="36.437052" r="2" fill="#5e5744"/>
<circle cx="-20.740527" cy="36.437052" r="2" fill="#494131"/>
<circle cx="-9.275446" cy="36.437052" r="2" fill="#61513d"/>
<circle cx="9.275446" cy="36.437052" r="2" fill="#91795d"/>
<circle cx="20.740527" cy="36.437052" r="2" fill="#6c533f"/>
<circle cx="30.015973" cy="36.437052" r="2" fill="#86674f"/>
<circle cx="39.291419" cy="36.437052" r="2" fill="#93684f"/>
<circle cx="48.566865" cy="36.437052" r="2" fill="#986950"/>
<circle cx="57.842311" cy="36.437052" r="2" fill="#6b3e29"/>
<circle cx="-54.976040" cy="32.491970" r="2" fill="#64624d"/>
<circle cx="-42.157689" cy="32.491970" r="2" fill="#5a5948"/>
<circle cx="-36.425149" cy="32.491970" r="2" fill="#736c55"/>
<circle cx="-23.606798" cy="32.491970" r="2" fill="#918268"/>
<circle cx="-17.874257" cy="32.491970" r="2" fill="#3e372c"/>
<circle cx="-12.141716" cy="32.491970" r="2" fill="#9c866b"/>
<circle cx="-6.409175" cy="32.491970" r="2" fill="#86745d"/>
<circle cx="6.409175" cy="32.491970" r="2" fill="#b29373"/>
<circle cx="12.141716" cy="32.491970" r="2" fill="#8f755d"/>
<circle cx="17.874257" cy="32.491970" r="2" fill="#ac896b"/>
<circle cx="23.606798" cy="32.491970" r="2" fill="#503d2f"/>
<circle cx="36.425149" cy="32.491970" r="2" fill="#815f4a"/>
<circle cx="42.157689" cy="32.491970" r="2" fill="#c69277"/>
<circle cx="54.976040" cy="32.491970" r="2" fill="#955e45"/>
<circle cx="60.708581" cy="32.491970" r="2" fill="#764231"/>
<circle cx="-1.771453" cy="30.985082" r="2" fill="#998369"/>
<circle cx="1.771453" cy="30.985082" r="2" fill="#574a3b"/>
<circle cx="-50.338317" cy="30.985082" r="2" fill="#54594a"/>
<circle cx="-46.795412" cy="30.985082" r="2" fill="#666c5a"/>
<circle cx="-31.787426" cy="30.985082" r="2" fill="#211d17"/>
<circle cx="28.244521" cy="30.985082" r="2" fill="#816753"/>
<circle cx="31.787426" cy="30.985082" r="2" fill="#755c4a"/>
<circle cx="46.795412" cy="30.985082" r="2" fill="#5f3c2c"/>
<circle cx="50.338317" cy="30.985082" r="2" fill="#c4795c"/>
<circle cx="-58.937128" cy="27.039999" r="2" fill="#334438"/>
<circle cx="-53.204588" cy="27.039999" r="2" fill="#626e5c"/>
<circle cx="-43.929142" cy="27.039999" r="2" fill="#79745e"/>
<circle cx="-34.653696" cy="27.039999" r="2" fill="#6e6753"/>
<circle cx="-4.637723" cy="27.039999" r="2" fill="#968168"/>
<circle cx="4.637723" cy="27.039999" r="2" fill="#736251"/>
<circle cx="34.653696" cy="27.039999" r="2" fill="#b29178"/>
<circle cx="43.929142" cy="27.039999" r="2" fill="#714e3e"/>
<circle cx="53.204588" cy="27.039999" r="2" fill="#b7755b"/>
<circle cx="58.937128" cy="27.039999" r="2" fill="#462b21"/>
<circle cx="-25.378250" cy="27.039999" r="2" fill="#3c372c"/>
<circle cx="25.378250" cy="27.039999" r="2" fill="#c9a487"/>
<circle cx="-19.645709" cy="27.039999" r="2" fill="#9d8d71"/>
<circle cx="-10.370264" cy="27.039999" r="2" fill="#95836b"/>
<circle cx="10.370264" cy="27.039999" r="2" fill="#85705b"/>
<circle cx="19.645709" cy="27.039999" r="2" fill="#a88b71"/>
<circle cx="-63.574851" cy="25.533112" r="2" fill="#314036"/>
<circle cx="63.574851" cy="25.533112" r="2" fill="#793826"/>
<circle cx="-15.007987" cy="25.533112" r="2" fill="#887860"/>
<circle cx="15.007987" cy="25.533112" r="2" fill="#96806b"/>
<circle cx="-39.291419" cy="23.670496" r="2" fill="#5a5548"/>
<circle cx="39.291419" cy="23.670496" r="2" fill="#4d3a2e"/>
<circle cx="-43.929142" cy="22.163609" r="2" fill="#7e7766"/>
<circle cx="-34.653696" cy="22.163609" r="2" fill="#35322b"/>
<circle cx="34.653696" cy="22.163609" r="2" fill="#4e3e33"/>
<circle cx="43.929142" cy="22.163609" r="2" fill="#a5705a"/>
<circle cx="-58.937128" cy="22.163609" r="2" fill="#4a5548"/>
<circle cx="-10.370264" cy="22.163609" r="2" fill="#504639"/>
<circle cx="10.370264" cy="22.163609" r="2" fill="#665748"/>
<circle cx="58.937128" cy="22.163609" r="2" fill="#885946"/>
<circle cx="-19.645709" cy="22.163609" r="2" fill="#574d3e"/>
<circle cx="19.645709" cy="22.163609" r="2" fill="#7f6958"/>
<circle cx="-51.433135" cy="21.588029" r="2" fill="#6e7c6a"/>
<circle cx="-2.866270" cy="21.588029" r="2" fill="#4c4237"/>
<circle cx="2.866270" cy="21.588029" r="2" fill="#5b4f42"/>
<circle cx="51.433135" cy="21.588029" r="2" fill="#734f40"/>
<circle cx="-27.149703" cy="21.588029" r="2" fill="#918670"/>
<circle cx="27.149703" cy="21.588029" r="2" fill="#776152"/>
<circle cx="-46.795412" cy="20.081142" r="2" fill="#3d3a32"/>
<circle cx="46.795412" cy="20.081142" r="2" fill="#836152"/>
<circle cx="-31.787426" cy="20.081142" r="2" fill="#544d3e"/>
<circle cx="31.787426" cy="20.081142" r="2" fill="#8c6f5c"/>
<circle cx="-56.070858" cy="18.218526" r="2" fill="#51564b"/>
<circle cx="56.070858" cy="18.218526" r="2" fill="#825443"/>
<circle cx="-7.503993" cy="18.218526" r="2" fill="#978873"/>
<circle cx="7.503993" cy="18.218526" r="2" fill="#4f443a"/>
<circle cx="-22.511980" cy="18.218526" r="2" fill="#9e8f76"/>
<circle cx="22.511980" cy="18.218526" r="2" fill="#8e7564"/>
<circle cx="-42.157689" cy="16.711639" r="2" fill="#59554a"/>
<circle cx="-36.425149" cy="16.711639" r="2" fill="#9f9784"/>
<circle cx="36.425149" cy="16.711639" r="2" fill="#694e40"/>
<circle cx="42.157689" cy="16.711639" r="2" fill="#906b58"/>
<circle cx="-66.441122" cy="16.711639" r="2" fill="#5f7265"/>
<circle cx="-60.708581" cy="16.711639" r="2" fill="#5d5f54"/>
<circle cx="-17.874257" cy="16.711639" r="2" fill="#beb096"/>
<circle cx="17.874257" cy="16.711639" r="2" fill="#a58c74"/>
<circle cx="60.708581" cy="16.711639" r="2" fill="#542016"/>
<circle cx="66.441122" cy="16.711639" r="2" fill="#51190e"/>
<circle cx="-12.141716" cy="16.711639" r="2" fill="#847765"/>
<circle cx="12.141716" cy="16.711639" r="2" fill="#383029"/>
<circle cx="-49.661683" cy="16.136059" r="2" fill="#21201c"/>
<circle cx="49.661683" cy="16.136059" r="2" fill="#917160"/>
<circle cx="-4.637723" cy="16.136059" r="2" fill="#706253"/>
<circle cx="4.637723" cy="16.136059" r="2" fill="#fadbbf"/>
<circle cx="-28.921155" cy="16.136059" r="2" fill="#736c5b"/>
<circle cx="28.921155" cy="16.136059" r="2" fill="#655246"/>
<circle cx="0.000000" cy="14.629171" r="2" fill="#463f36"/>
<circle cx="-54.299406" cy="12.766556" r="2" fill="#7c7b6c"/>
<circle cx="54.299406" cy="12.766556" r="2" fill="#a6715f"/>
<circle cx="-63.574851" cy="12.766556" r="2" fill="#646559"/>
<circle cx="-24.283432" cy="12.766556" r="2" fill="#b7aa96"/>
<circle cx="-15.007987" cy="12.766556" r="2" fill="#ecd8ba"/>
<circle cx="15.007987" cy="12.766556" r="2" fill="#8a7667"/>
<circle cx="24.283432" cy="12.766556" r="2" fill="#846d5e"/>
<circle cx="63.574851" cy="12.766556" r="2" fill="#6c1a0e"/>
<circle cx="-43.929142" cy="11.259668" r="2" fill="#898575"/>
<circle cx="-34.653696" cy="11.259668" r="2" fill="#6c6659"/>
<circle cx="34.653696" cy="11.259668" r="2" fill="#907769"/>
<circle cx="43.929142" cy="11.259668" r="2" fill="#6f5044"/>
<circle cx="-49.661683" cy="11.259668" r="2" fill="#9a9283"/>
<circle cx="-28.921155" cy="11.259668" r="2" fill="#514c43"/>
<circle cx="28.921155" cy="11.259668" r="2" fill="#615147"/>
<circle cx="49.661683" cy="11.259668" r="2" fill="#ae7e6c"/>
<circle cx="-4.637723" cy="11.259668" r="2" fill="#8e7f70"/>
<circle cx="4.637723" cy="11.259668" r="2" fill="#4e453d"/>
<circle cx="-68.212574" cy="9.397053" r="2" fill="#6e7b6d"/>
<circle cx="-19.645709" cy="9.397053" r="2" fill="#9b9182"/>
<circle cx="-13.913169" cy="9.397053" r="2" fill="#8a7f70"/>
<circle cx="13.913169" cy="9.397053" r="2" fill="#ae9a8a"/>
<circle cx="19.645709" cy="9.397053" r="2" fill="#615349"/>
<circle cx="68.212574" cy="9.397053" r="2" fill="#482c24"/>
<circle cx="-58.937128" cy="9.397053" r="2" fill="#3c3f39"/>
<circle cx="58.937128" cy="9.397053" r="2" fill="#8f6455"/>
<circle cx="-48.566865" cy="7.890165" r="2" fill="#757267"/>
<circle cx="-39.291419" cy="7.890165" r="2" fill="#625d54"/>
<circle cx="-30.015973" cy="7.890165" r="2" fill="#887f71"/>
<circle cx="30.015973" cy="7.890165" r="2" fill="#5f524b"/>
<circle cx="39.291419" cy="7.890165" r="2" fill="#3a2b25"/>
<circle cx="48.566865" cy="7.890165" r="2" fill="#897063"/>
<circle cx="0.000000" cy="7.890165" r="2" fill="#8d7f71"/>
<circle cx="-9.275446" cy="7.890165" r="2" fill="#aa9b8b"/>
<circle cx="9.275446" cy="7.890165" r="2" fill="#716459"/>
<circle cx="-63.574851" cy="6.027550" r="2" fill="#3d3d36"/>
<circle cx="63.574851" cy="6.027550" r="2" fill="#18110f"/>
<circle cx="-13.913169" cy="4.520663" r="2" fill="#7a7164"/>
<circle cx="13.913169" cy="4.520663" r="2" fill="#8d7b6e"/>
<circle cx="-68.212574" cy="4.520663" r="2" fill="#3b3f39"/>
<circle cx="68.212574" cy="4.520663" r="2" fill="#180c0a"/>
<circle cx="-58.937128" cy="4.520663" r="2" fill="#a9a796"/>
<circle cx="58.937128" cy="4.520663" r="2" fill="#805a4d"/>
<circle cx="-75.716568" cy="3.945083" r="2" fill="#5d6259"/>
<circle cx="-45.700594" cy="3.945083" r="2" fill="#5e5a52"/>
<circle cx="45.700594" cy="3.945083" r="2" fill="#645248"/>
<circle cx="75.716568" cy="3.945083" r="2" fill="#cc7b6c"/>
<circle cx="-51.433135" cy="3.945083" r="2" fill="#7a766b"/>
<circle cx="51.433135" cy="3.945083" r="2" fill="#906b5d"/>
<circle cx="-32.882244" cy="3.945083" r="2" fill="#7c7568"/>
<circle cx="-27.149703" cy="3.945083" r="2" fill="#aba294"/>
<circle cx="-21.417162" cy="3.945083" r="2" fill="#8c8478"/>
<circle cx="21.417162" cy="3.945083" r="2" fill="#887466"/>
<circle cx="27.149703" cy="3.945083" r="2" fill="#29221e"/>
<circle cx="32.882244" cy="3.945083" r="2" fill="#72635a"/>
<circle cx="-2.866270" cy="3.945083" r="2" fill="#95877a"/>
<circle cx="2.866270" cy="3.945083" r="2" fill="#786b60"/>
<circle cx="-41.062872" cy="2.438195" r="2" fill="#807a70"/>
<circle cx="-37.519966" cy="2.438195" r="2" fill="#918a7e"/>
<circle cx="37.519966" cy="2.438195" r="2" fill="#40352f"/>
<circle cx="41.062872" cy="2.438195" r="2" fill="#342c28"/>
<circle cx="-71.078845" cy="2.438195" r="2" fill="#181917"/>
<circle cx="71.078845" cy="2.438195" r="2" fill="#523731"/>
<circle cx="-7.503993" cy="2.438195" r="2" fill="#84786d"/>
<circle cx="7.503993" cy="2.438195" r="2" fill="#776b62"/>
<circle cx="-56.070858" cy="2.438195" r="2" fill="#959184"/>
<circle cx="56.070858" cy="2.438195" r="2" fill="#604c44"/>
<circle cx="-16.779439" cy="0.575580" r="2" fill="#726a60"/>
<circle cx="16.779439" cy="0.575580" r="2" fill="#433b35"/>
<circle cx="-12.141716" cy="-0.931308" r="2" fill="#877e73"/>
<circle cx="12.141716" cy="-0.931308" r="2" fill="#8b7e74"/>
<circle cx="-66.441122" cy="-0.931308" r="2" fill="#54544c"/>
<circle cx="66.441122" cy="-0.931308" r="2" fill="#97695d"/>
<circle cx="-60.708581" cy="-0.931308" r="2" fill="#5f5c54"/>
<circle cx="60.708581" cy="-0.931308" r="2" fill="#4a352f"/>
<circle cx="-43.929142" cy="-1.506888" r="2" fill="#67635b"/>
<circle cx="43.929142" cy="-1.506888" r="2" fill="#705b52"/>
<circle cx="-73.945115" cy="-1.506888" r="2" fill="#65635a"/>
<circle cx="73.945115" cy="-1.506888" r="2" fill="#734a42"/>
<circle cx="-34.653696" cy="-1.506888" r="2" fill="#9a9283"/>
<circle cx="34.653696" cy="-1.506888" r="2" fill="#6c6058"/>
<circle cx="-28.921155" cy="-1.506888" r="2" fill="#282623"/>
<circle cx="28.921155" cy="-1.506888" r="2" fill="#554b44"/>
<circle cx="-53.204588" cy="-1.506888" r="2" fill="#54514a"/>
<circle cx="-19.645709" cy="-1.506888" r="2" fill="#948c81"/>
<circle cx="19.645709" cy="-1.506888" r="2" fill="#64574e"/>
<circle cx="53.204588" cy="-1.506888" r="2" fill="#987c71"/>
<circle cx="-4.637723" cy="-1.506888" r="2" fill="#6b655d"/>
<circle cx="4.637723" cy="-1.506888" r="2" fill="#3f3934"/>
<circle cx="-24.283432" cy="-3.013775" r="2" fill="#544f49"/>
<circle cx="24.283432" cy="-3.013775" r="2" fill="#7c716a"/>
<circle cx="-78.582838" cy="-4.876390" r="2" fill="#50514b"/>
<circle cx="78.582838" cy="-4.876390" r="2" fill="#83534a"/>
<circle cx="-48.566865" cy="-4.876390" r="2" fill="#a09b8f"/>
<circle cx="48.566865" cy="-4.876390" r="2" fill="#6e615b"/>
<circle cx="0.000000" cy="-4.876390" r="2" fill="#7e746c"/>
<circle cx="-83.220561" cy="-6.383278" r="2" fill="#3b3e3a"/>
<circle cx="-73.945115" cy="-6.383278" r="2" fill="#3c3c37"/>
<circle cx="73.945115" cy="-6.383278" r="2" fill="#5e413c"/>
<circle cx="83.220561" cy="-6.383278" r="2" fill="#683730"/>
<circle cx="-53.204588" cy="-6.383278" r="2" fill="#a6a396"/>
<circle cx="53.204588" cy="-6.383278" r="2" fill="#6b5a53"/>
<circle cx="-43.929142" cy="-6.383278" r="2" fill="#8b867c"/>
<circle cx="-28.921155" cy="-6.383278" r="2" fill="#7f786f"/>
<circle cx="28.921155" cy="-6.383278" r="2" fill="#928076"/>
<circle cx="43.929142" cy="-6.383278" r="2" fill="#524843"/>
<circle cx="-19.645709" cy="-6.383278" r="2" fill="#9b9186"/>
<circle cx="19.645709" cy="-6.383278" r="2" fill="#877c75"/>
<circle cx="-68.212574" cy="-6.383278" r="2" fill="#595952"/>
<circle cx="-10.370264" cy="-6.383278" r="2" fill="#9b8f85"/>
<circle cx="-4.637723" cy="-6.383278" r="2" fill="#80756c"/>
<circle cx="4.637723" cy="-6.383278" r="2" fill="#6b615a"/>
<circle cx="10.370264" cy="-6.383278" r="2" fill="#958e8a"/>
<circle cx="68.212574" cy="-6.383278" r="2" fill="#836962"/>
<circle cx="-58.937128" cy="-6.383278" r="2" fill="#818079"/>
<circle cx="58.937128" cy="-6.383278" r="2" fill="#937f78"/>
<circle cx="-36.425149" cy="-6.958858" r="2" fill="#44403b"/>
<circle cx="36.425149" cy="-6.958858" r="2" fill="#756a64"/>
<circle cx="-41.062872" cy="-8.465745" r="2" fill="#928e83"/>
<circle cx="41.062872" cy="-8.465745" r="2" fill="#d7c3bb"/>
<circle cx="-31.787426" cy="-10.328361" r="2" fill="#635e57"/>
<circle cx="-16.779439" cy="-10.328361" r="2" fill="#59534d"/>
<circle cx="16.779439" cy="-10.328361" r="2" fill="#585250"/>
<circle cx="31.787426" cy="-10.328361" r="2" fill="#4e4744"/>
<circle cx="-65.346304" cy="-10.328361" r="2" fill="#54544f"/>
<circle cx="-61.803399" cy="-10.328361" r="2" fill="#121211"/>
<circle cx="-13.236534" cy="-10.328361" r="2" fill="#c8bfb3"/>
<circle cx="13.236534" cy="-10.328361" r="2" fill="#726d6a"/>
<circle cx="61.803399" cy="-10.328361" r="2" fill="#574842"/>
<circle cx="65.346304" cy="-10.328361" r="2" fill="#78615b"/>
<circle cx="-87.181649" cy="-11.835248" r="2" fill="#989d93"/>
<circle cx="-81.449108" cy="-11.835248" r="2" fill="#7a8179"/>
<circle cx="-75.716568" cy="-11.835248" r="2" fill="#656760"/>
<circle cx="75.716568" cy="-11.835248" r="2" fill="#663e37"/>
<circle cx="81.449108" cy="-11.835248" r="2" fill="#7c4e48"/>
<circle cx="87.181649" cy="-11.835248" r="2" fill="#53312d"/>
<circle cx="-69.984027" cy="-11.835248" r="2" fill="#686964"/>
<circle cx="-57.165676" cy="-11.835248" r="2" fill="#5d5d58"/>
<circle cx="57.165676" cy="-11.835248" r="2" fill="#423633"/>
<circle cx="69.984027" cy="-11.835248" r="2" fill="#5c423d"/>
<circle cx="-51.433135" cy="-11.835248" r="2" fill="#ada89c"/>
<circle cx="-45.700594" cy="-11.835248" r="2" fill="#bab5a9"/>
<circle cx="-27.149703" cy="-11.835248" r="2" fill="#b2aa9f"/>
<circle cx="-21.417162" cy="-11.835248" r="2" fill="#77726b"/>
<circle cx="-8.598811" cy="-11.835248" r="2" fill="#7f7a73"/>
<circle cx="-2.866270" cy="-11.835248" r="2" fill="#6b6660"/>
<circle cx="2.866270" cy="-11.835248" r="2" fill="#716e6d"/>
<circle cx="8.598811" cy="-11.835248" r="2" fill="#5b5857"/>
<circle cx="21.417162" cy="-11.835248" r="2" fill="#161515"/>
<circle cx="27.149703" cy="-11.835248" r="2" fill="#a0918d"/>
<circle cx="45.700594" cy="-11.835248" r="2" fill="#4b4443"/>
<circle cx="51.433135" cy="-11.835248" r="2" fill="#716562"/>
<circle cx="-38.196601" cy="-12.410828" r="2" fill="#65645e"/>
<circle cx="38.196601" cy="-12.410828" r="2" fill="#504746"/>
<circle cx="-84.315379" cy="-15.780331" r="2" fill="#60756f"/>
<circle cx="-72.850297" cy="-15.780331" r="2" fill="#959e98"/>
<circle cx="72.850297" cy="-15.780331" r="2" fill="#694944"/>
<circle cx="84.315379" cy="-15.780331" r="2" fill="#bf3a31"/>
<circle cx="-63.574851" cy="-15.780331" r="2" fill="#686a66"/>
<circle cx="-54.299406" cy="-15.780331" r="2" fill="#888a85"/>
<circle cx="-33.558878" cy="-15.780331" r="2" fill="#928c82"/>
<circle cx="-24.283432" cy="-15.780331" r="2" fill="#65625c"/>
<circle cx="-5.732541" cy="-15.780331" r="2" fill="#847f78"/>
<circle cx="5.732541" cy="-15.780331" r="2" fill="#73706f"/>
<circle cx="24.283432" cy="-15.780331" r="2" fill="#6a6563"/>
<circle cx="33.558878" cy="-15.780331" r="2" fill="#a39292"/>
<circle cx="54.299406" cy="-15.780331" r="2" fill="#463b38"/>
<circle cx="63.574851" cy="-15.780331" r="2" fill="#171211"/>
<circle cx="-15.007987" cy="-15.780331" r="2" fill="#55514d"/>
<circle cx="15.007987" cy="-15.780331" r="2" fill="#8b8383"/>
<circle cx="-43.929142" cy="-17.287218" r="2" fill="#898780"/>
<circle cx="-38.196601" cy="-17.287218" r="2" fill="#5d5c58"/>
<circle cx="38.196601" cy="-17.287218" r="2" fill="#665a5a"/>
<circle cx="43.929142" cy="-17.287218" r="2" fill="#665856"/>
<circle cx="-88.953102" cy="-19.149834" r="2" fill="#3f5450"/>
<circle cx="-83.220561" cy="-19.149834" r="2" fill="#717f79"/>
<circle cx="-73.945115" cy="-19.149834" r="2" fill="#5c615c"/>
<circle cx="-68.212574" cy="-19.149834" r="2" fill="#898a84"/>
<circle cx="-4.637723" cy="-19.149834" r="2" fill="#6d6863"/>
<circle cx="4.637723" cy="-19.149834" r="2" fill="#6f6e70"/>
<circle cx="68.212574" cy="-19.149834" r="2" fill="#9b736c"/>
<circle cx="73.945115" cy="-19.149834" r="2" fill="#7b5450"/>
<circle cx="83.220561" cy="-19.149834" r="2" fill="#8e4b46"/>
<circle cx="88.953102" cy="-19.149834" r="2" fill="#c6443e"/>
<circle cx="-58.937128" cy="-19.149834" r="2" fill="#7b807b"/>
<circle cx="-53.204588" cy="-19.149834" r="2" fill="#a0a099"/>
<circle cx="-28.921155" cy="-19.149834" r="2" fill="#a9a69d"/>
<circle cx="28.921155" cy="-19.149834" r="2" fill="#6f6667"/>
<circle cx="53.204588" cy="-19.149834" r="2" fill="#5b4b47"/>
<circle cx="58.937128" cy="-19.149834" r="2" fill="#483937"/>
<circle cx="-19.645709" cy="-19.149834" r="2" fill="#454340"/>
<circle cx="-10.370264" cy="-19.149834" r="2" fill="#605c58"/>
<circle cx="10.370264" cy="-19.149834" r="2" fill="#726e6f"/>
<circle cx="19.645709" cy="-19.149834" r="2" fill="#4c4a4c"/>
<circle cx="-78.582838" cy="-20.656721" r="2" fill="#888e88"/>
<circle cx="0.000000" cy="-20.656721" r="2" fill="#ada69f"/>
<circle cx="78.582838" cy="-20.656721" r="2" fill="#b2817c"/>
<circle cx="-48.566865" cy="-20.656721" r="2" fill="#9d9d97"/>
<circle cx="-39.291419" cy="-20.656721" r="2" fill="#545451"/>
<circle cx="39.291419" cy="-20.656721" r="2" fill="#5f5354"/>
<circle cx="48.566865" cy="-20.656721" r="2" fill="#ac8a84"/>
<circle cx="-24.283432" cy="-22.519337" r="2" fill="#757470"/>
<circle cx="24.283432" cy="-22.519337" r="2" fill="#878287"/>
<circle cx="-83.220561" cy="-24.026224" r="2" fill="#9aa19c"/>
<circle cx="-4.637723" cy="-24.026224" r="2" fill="#817a75"/>
<circle cx="4.637723" cy="-24.026224" r="2" fill="#838285"/>
<circle cx="83.220561" cy="-24.026224" r="2" fill="#b4827f"/>
<circle cx="-73.945115" cy="-24.026224" r="2" fill="#8e9490"/>
<circle cx="-53.204588" cy="-24.026224" r="2" fill="#646663"/>
<circle cx="-28.921155" cy="-24.026224" r="2" fill="#77746f"/>
<circle cx="-19.645709" cy="-24.026224" r="2" fill="#6e6b67"/>
<circle cx="19.645709" cy="-24.026224" r="2" fill="#555253"/>
<circle cx="28.921155" cy="-24.026224" r="2" fill="#979096"/>
<circle cx="53.204588" cy="-24.026224" r="2" fill="#816c69"/>
<circle cx="73.945115" cy="-24.026224" r="2" fill="#5f4543"/>
<circle cx="-90.724554" cy="-24.601804" r="2" fill="#c2ccc7"/>
<circle cx="90.724554" cy="-24.601804" r="2" fill="#a44e4c"/>
<circle cx="-66.441122" cy="-24.601804" r="2" fill="#8e938f"/>
<circle cx="-60.708581" cy="-24.601804" r="2" fill="#4f524f"/>
<circle cx="-42.157689" cy="-24.601804" r="2" fill="#51514e"/>
<circle cx="-36.425149" cy="-24.601804" r="2" fill="#a8a8a3"/>
<circle cx="36.425149" cy="-24.601804" r="2" fill="#776c70"/>
<circle cx="42.157689" cy="-24.601804" r="2" fill="#6b6165"/>
<circle cx="60.708581" cy="-24.601804" r="2" fill="#634f4f"/>
<circle cx="66.441122" cy="-24.601804" r="2" fill="#584748"/>
<circle cx="-12.141716" cy="-24.601804" r="2" fill="#85807d"/>
<circle cx="12.141716" cy="-24.601804" r="2" fill="#cdc5ca"/>
<circle cx="-95.362277" cy="-26.108692" r="2" fill="#727875"/>
<circle cx="-46.795412" cy="-26.108692" r="2" fill="#6c6d6a"/>
<circle cx="46.795412" cy="-26.108692" r="2" fill="#685150"/>
<circle cx="95.362277" cy="-26.108692" r="2" fill="#953e40"/>
<circle cx="-31.787426" cy="-26.108692" r="2" fill="#868582"/>
<circle cx="31.787426" cy="-26.108692" r="2" fill="#73696d"/>
<circle cx="-16.779439" cy="-26.108692" r="2" fill="#575655"/>
<circle cx="16.779439" cy="-26.108692" r="2" fill="#616165"/>
<circle cx="-86.086831" cy="-27.971307" r="2" fill="#1f3b3a"/>
<circle cx="-71.078845" cy="-27.971307" r="2" fill="#696e6c"/>
<circle cx="-56.070858" cy="-27.971307" r="2" fill="#777b79"/>
<circle cx="-7.503993" cy="-27.971307" r="2" fill="#a39f9c"/>
<circle cx="7.503993" cy="-27.971307" r="2" fill="#6f7075"/>
<circle cx="56.070858" cy="-27.971307" r="2" fill="#685353"/>
<circle cx="71.078845" cy="-27.971307" r="2" fill="#a57a77"/>
<circle cx="86.086831" cy="-27.971307" r="2" fill="#3a2223"/>
<circle cx="-2.866270" cy="-29.478195" r="2" fill="#717171"/>
<circle cx="2.866270" cy="-29.478195" r="2" fill="#7a7d82"/>
<circle cx="-100.000000" cy="-29.478195" r="2" fill="#698f8f"/>
<circle cx="-81.449108" cy="-29.478195" r="2" fill="#4b5252"/>
<circle cx="-75.716568" cy="-29.478195" r="2" fill="#909896"/>
<circle cx="-51.433135" cy="-29.478195" r="2" fill="#888b89"/>
<circle cx="-27.149703" cy="-29.478195" r="2" fill="#636362"/>
<circle cx="-21.417162" cy="-29.478195" r="2" fill="#acaaa6"/>
<circle cx="21.417162" cy="-29.478195" r="2" fill="#75757a"/>
<circle cx="27.149703" cy="-29.478195" r="2" fill="#a39ba2"/>
<circle cx="51.433135" cy="-29.478195" r="2" fill="#a58c8e"/>
<circle cx="75.716568" cy="-29.478195" r="2" fill="#bf8e8c"/>
<circle cx="81.449108" cy="-29.478195" r="2" fill="#8c5251"/>
<circle cx="100.000000" cy="-29.478195" r="2" fill="#834f52"/>
<circle cx="-68.212574" cy="-30.053774" r="2" fill="#818684"/>
<circle cx="-58.937128" cy="-30.053774" r="2" fill="#606463"/>
<circle cx="58.937128" cy="-30.053774" r="2" fill="#3d3537"/>
<circle cx="68.212574" cy="-30.053774" r="2" fill="#907679"/>
<circle cx="-92.496007" cy="-30.053774" r="2" fill="#647c7b"/>
<circle cx="-43.929142" cy="-30.053774" r="2" fill="#7c7e7c"/>
<circle cx="-34.653696" cy="-30.053774" r="2" fill="#878887"/>
<circle cx="-13.913169" cy="-30.053774" r="2" fill="#9b9795"/>
<circle cx="13.913169" cy="-30.053774" r="2" fill="#404043"/>
<circle cx="34.653696" cy="-30.053774" r="2" fill="#5c5458"/>
<circle cx="43.929142" cy="-30.053774" r="2" fill="#5b5053"/>
<circle cx="92.496007" cy="-30.053774" r="2" fill="#691d24"/>
<circle cx="-63.574851" cy="-31.560662" r="2" fill="#4d5151"/>
<circle cx="63.574851" cy="-31.560662" r="2" fill="#89797e"/>
<circle cx="-87.858284" cy="-33.423277" r="2" fill="#566767"/>
<circle cx="-78.582838" cy="-33.423277" r="2" fill="#5a5f5f"/>
<circle cx="-39.291419" cy="-33.423277" r="2" fill="#575b5b"/>
<circle cx="-9.275446" cy="-33.423277" r="2" fill="#6a6a6a"/>
<circle cx="0.000000" cy="-33.423277" r="2" fill="#494949"/>
<circle cx="9.275446" cy="-33.423277" r="2" fill="#85878d"/>
<circle cx="39.291419" cy="-33.423277" r="2" fill="#75696e"/>
<circle cx="78.582838" cy="-33.423277" r="2" fill="#8c676a"/>
<circle cx="87.858284" cy="-33.423277" r="2" fill="#634a4e"/>
<circle cx="-98.228547" cy="-34.930165" r="2" fill="#616464"/>
<circle cx="-92.496007" cy="-34.930165" r="2" fill="#5f6667"/>
<circle cx="-68.212574" cy="-34.930165" r="2" fill="#7a8284"/>
<circle cx="-58.937128" cy="-34.930165" r="2" fill="#6e7577"/>
<circle cx="-49.661683" cy="-34.930165" r="2" fill="#626565"/>
<circle cx="-43.929142" cy="-34.930165" r="2" fill="#626668"/>
<circle cx="-34.653696" cy="-34.930165" r="2" fill="#54595c"/>
<circle cx="-28.921155" cy="-34.930165" r="2" fill="#afb1b1"/>
<circle cx="-19.645709" cy="-34.930165" r="2" fill="#9c9c9c"/>
<circle cx="-13.913169" cy="-34.930165" r="2" fill="#4a4a4a"/>
<circle cx="13.913169" cy="-34.930165" r="2" fill="#585b60"/>
<circle cx="19.645709" cy="-34.930165" r="2" fill="#5d5d63"/>
<circle cx="28.921155" cy="-34.930165" r="2" fill="#413d40"/>
<circle cx="34.653696" cy="-34.930165" r="2" fill="#897982"/>
<circle cx="43.929142" cy="-34.930165" r="2" fill="#876f78"/>
<circle cx="49.661683" cy="-34.930165" r="2" fill="#302a2d"/>
<circle cx="58.937128" cy="-34.930165" r="2" fill="#120e0f"/>
<circle cx="68.212574" cy="-34.930165" r="2" fill="#75545c"/>
<circle cx="92.496007" cy="-34.930165" r="2" fill="#785259"/>
<circle cx="98.228547" cy="-34.930165" r="2" fill="#c87785"/>
<circle cx="-83.220561" cy="-36.792780" r="2" fill="#85a3a8"/>
<circle cx="-77.488020" cy="-36.792780" r="2" fill="#a1a9aa"/>
<circle cx="-4.637723" cy="-36.792780" r="2" fill="#6f6f6f"/>
<circle cx="4.637723" cy="-36.792780" r="2" fill="#62656a"/>
<circle cx="77.488020" cy="-36.792780" r="2" fill="#322327"/>
<circle cx="83.220561" cy="-36.792780" r="2" fill="#ba7c8b"/>
<circle cx="-72.850297" cy="-38.299668" r="2" fill="#4f595b"/>
<circle cx="-63.574851" cy="-38.299668" r="2" fill="#515a5c"/>
<circle cx="-54.299406" cy="-38.299668" r="2" fill="#8c979c"/>
<circle cx="-45.023960" cy="-38.299668" r="2" fill="#4b5052"/>
<circle cx="-33.558878" cy="-38.299668" r="2" fill="#8d9ca3"/>
<circle cx="-24.283432" cy="-38.299668" r="2" fill="#3f3f3f"/>
<circle cx="-15.007987" cy="-38.299668" r="2" fill="#5a5a5a"/>
<circle cx="15.007987" cy="-38.299668" r="2" fill="#59575b"/>
<circle cx="24.283432" cy="-38.299668" r="2" fill="#827e84"/>
<circle cx="33.558878" cy="-38.299668" r="2" fill="#b4a7b7"/>
<circle cx="45.023960" cy="-38.299668" r="2" fill="#34333c"/>
<circle cx="54.299406" cy="-38.299668" r="2" fill="#5b4955"/>
<circle cx="63.574851" cy="-38.299668" r="2" fill="#6e545c"/>
<circle cx="72.850297" cy="-38.299668" r="2" fill="#533a41"/>
<circle cx="0.000000" cy="-40.162283" r="2" fill="#3e3e3e"/>
<circle cx="-77.488020" cy="-41.669171" r="2" fill="#5f7477"/>
<circle cx="77.488020" cy="-41.669171" r="2" fill="#865865"/>
<circle cx="-4.637723" cy="-41.669171" r="2" fill="#101010"/>
<circle cx="4.637723" cy="-41.669171" r="2" fill="#676b71"/>
<circle cx="-66.441122" cy="-42.244751" r="2" fill="#63787d"/>
<circle cx="-60.708581" cy="-42.244751" r="2" fill="#91b6c1"/>
<circle cx="-47.890230" cy="-42.244751" r="2" fill="#6a7c81"/>
<circle cx="-42.157689" cy="-42.244751" r="2" fill="#424b4f"/>
<circle cx="-36.425149" cy="-42.244751" r="2" fill="#758c95"/>
<circle cx="-12.141716" cy="-42.244751" r="2" fill="#525252"/>
<circle cx="12.141716" cy="-42.244751" r="2" fill="#9ba0aa"/>
<circle cx="36.425149" cy="-42.244751" r="2" fill="#817b8a"/>
<circle cx="42.157689" cy="-42.244751" r="2" fill="#837584"/>
<circle cx="47.890230" cy="-42.244751" r="2" fill="#735b6d"/>
<circle cx="60.708581" cy="-42.244751" r="2" fill="#936878"/>
<circle cx="66.441122" cy="-42.244751" r="2" fill="#835f70"/>
<circle cx="-30.692608" cy="-42.244751" r="2" fill="#525b61"/>
<circle cx="-17.874257" cy="-42.244751" r="2" fill="#8c8c8c"/>
<circle cx="17.874257" cy="-42.244751" r="2" fill="#3b393c"/>
<circle cx="30.692608" cy="-42.244751" r="2" fill="#57515c"/>
<circle cx="-71.078845" cy="-43.751638" r="2" fill="#70b1b8"/>
<circle cx="-56.070858" cy="-43.751638" r="2" fill="#567178"/>
<circle cx="-52.527953" cy="-43.751638" r="2" fill="#576b6f"/>
<circle cx="-26.054885" cy="-43.751638" r="2" fill="#858585"/>
<circle cx="-22.511980" cy="-43.751638" r="2" fill="#323232"/>
<circle cx="-7.503993" cy="-43.751638" r="2" fill="#4b4b4b"/>
<circle cx="7.503993" cy="-43.751638" r="2" fill="#979ea8"/>
<circle cx="22.511980" cy="-43.751638" r="2" fill="#615f66"/>
<circle cx="26.054885" cy="-43.751638" r="2" fill="#282527"/>
<circle cx="52.527953" cy="-43.751638" r="2" fill="#644856"/>
<circle cx="56.070858" cy="-43.751638" r="2" fill="#4f3540"/>
<circle cx="71.078845" cy="-43.751638" r="2" fill="#9e5168"/>
<circle cx="-2.866270" cy="-47.121141" r="2" fill="#585858"/>
<circle cx="2.866270" cy="-47.121141" r="2" fill="#787f89"/>
<circle cx="-58.937128" cy="-47.696721" r="2" fill="#49747f"/>
<circle cx="-49.661683" cy="-47.696721" r="2" fill="#70a1b1"/>
<circle cx="-43.929142" cy="-47.696721" r="2" fill="#314750"/>
<circle cx="-34.653696" cy="-47.696721" r="2" fill="#657983"/>
<circle cx="-28.921155" cy="-47.696721" r="2" fill="#98acb9"/>
<circle cx="-19.645709" cy="-47.696721" r="2" fill="#232323"/>
<circle cx="-10.370264" cy="-47.696721" r="2" fill="#858485"/>
<circle cx="10.370264" cy="-47.696721" r="2" fill="#898e99"/>
<circle cx="19.645709" cy="-47.696721" r="2" fill="#75747d"/>
<circle cx="28.921155" cy="-47.696721" r="2" fill="#767698"/>
<circle cx="34.653696" cy="-47.696721" r="2" fill="#848ab8"/>
<circle cx="43.929142" cy="-47.696721" r="2" fill="#563c49"/>
<circle cx="49.661683" cy="-47.696721" r="2" fill="#341b24"/>
<circle cx="58.937128" cy="-47.696721" r="2" fill="#0d0508"/>
<circle cx="-39.291419" cy="-49.203608" r="2" fill="#618ea4"/>
<circle cx="39.291419" cy="-49.203608" r="2" fill="#40303b"/>
<circle cx="-15.007987" cy="-51.066224" r="2" fill="#5c5c5c"/>
<circle cx="15.007987" cy="-51.066224" r="2" fill="#66646d"/>
<circle cx="-19.645709" cy="-52.573111" r="2" fill="#151515"/>
<circle cx="-10.370264" cy="-52.573111" r="2" fill="#434343"/>
<circle cx="-4.637723" cy="-52.573111" r="2" fill="#777777"/>
<circle cx="4.637723" cy="-52.573111" r="2" fill="#777e87"/>
<circle cx="10.370264" cy="-52.573111" r="2" fill="#6b6e78"/>
<circle cx="19.645709" cy="-52.573111" r="2" fill="#575660"/>
<circle cx="-43.929142" cy="-52.573111" r="2" fill="#497f93"/>
<circle cx="-34.653696" cy="-52.573111" r="2" fill="#768c98"/>
<circle cx="34.653696" cy="-52.573111" r="2" fill="#8d8db7"/>
<circle cx="43.929142" cy="-52.573111" r="2" fill="#953d5b"/>
<circle cx="-27.149703" cy="-53.148691" r="2" fill="#455159"/>
<circle cx="27.149703" cy="-53.148691" r="2" fill="#5d6587"/>
<circle cx="-22.511980" cy="-54.655579" r="2" fill="#868788"/>
<circle cx="22.511980" cy="-54.655579" r="2" fill="#6b656d"/>
<circle cx="-31.787426" cy="-56.518194" r="2" fill="#a3c3d7"/>
<circle cx="-1.771453" cy="-56.518194" r="2" fill="#4f4f4f"/>
<circle cx="1.771453" cy="-56.518194" r="2" fill="#6d717e"/>
<circle cx="31.787426" cy="-56.518194" r="2" fill="#231c22"/>
<circle cx="-17.874257" cy="-58.025081" r="2" fill="#a4a7a9"/>
<circle cx="-12.141716" cy="-58.025081" r="2" fill="#b4b6b8"/>
<circle cx="-6.409175" cy="-58.025081" r="2" fill="#dfe0e3"/>
<circle cx="6.409175" cy="-58.025081" r="2" fill="#3f4147"/>
<circle cx="12.141716" cy="-58.025081" r="2" fill="#a2a2b5"/>
<circle cx="17.874257" cy="-58.025081" r="2" fill="#615c66"/>
<circle cx="-36.425149" cy="-58.025081" r="2" fill="#557688"/>
<circle cx="36.425149" cy="-58.025081" r="2" fill="#86607e"/>
<circle cx="-25.378250" cy="-58.600661" r="2" fill="#66737c"/>
<circle cx="25.378250" cy="-58.600661" r="2" fill="#4d4c6e"/>
<circle cx="-30.015973" cy="-61.970164" r="2" fill="#7baac6"/>
<circle cx="0.000000" cy="-61.970164" r="2" fill="#8693a6"/>
<circle cx="30.015973" cy="-61.970164" r="2" fill="#62436f"/>
<circle cx="-9.275446" cy="-61.970164" r="2" fill="#e2e6e9"/>
<circle cx="9.275446" cy="-61.970164" r="2" fill="#777d8e"/>
<circle cx="-25.378250" cy="-63.477052" r="2" fill="#586f80"/>
<circle cx="-19.645709" cy="-63.477052" r="2" fill="#8f979d"/>
<circle cx="19.645709" cy="-63.477052" r="2" fill="#5e5e6c"/>
<circle cx="25.378250" cy="-63.477052" r="2" fill="#342f47"/>
<circle cx="-10.370264" cy="-65.339667" r="2" fill="#4c4d4e"/>
<circle cx="-4.637723" cy="-65.339667" r="2" fill="#5d5d5e"/>
<circle cx="4.637723" cy="-65.339667" r="2" fill="#9dbad9"/>
<circle cx="10.370264" cy="-65.339667" r="2" fill="#4a4e5b"/>
<circle cx="-24.283432" cy="-66.846555" r="2" fill="#76b6ec"/>
<circle cx="-15.007987" cy="-66.846555" r="2" fill="#3f4448"/>
<circle cx="15.007987" cy="-66.846555" r="2" fill="#17181c"/>
<circle cx="24.283432" cy="-66.846555" r="2" fill="#121420"/>
<circle cx="-10.370264" cy="-70.216058" r="2" fill="#575d62"/>
<circle cx="10.370264" cy="-70.216058" r="2" fill="#5a5e6e"/>
<circle cx="-27.149703" cy="-70.791637" r="2" fill="#416987"/>
<circle cx="-21.417162" cy="-70.791637" r="2" fill="#8ba8bf"/>
<circle cx="-2.866270" cy="-70.791637" r="2" fill="#8f9297"/>
<circle cx="2.866270" cy="-70.791637" r="2" fill="#9dacc5"/>
<circle cx="21.417162" cy="-70.791637" r="2" fill="#2d2947"/>
<circle cx="27.149703" cy="-70.791637" r="2" fill="#513251"/>
<circle cx="-16.779439" cy="-72.298525" r="2" fill="#5f707d"/>
<circle cx="16.779439" cy="-72.298525" r="2" fill="#636ca1"/>
<circle cx="-7.503993" cy="-74.161140" r="2" fill="#929395"/>
<circle cx="7.503993" cy="-74.161140" r="2" fill="#4c5260"/>
<circle cx="-12.141716" cy="-75.668028" r="2" fill="#406d97"/>
<circle cx="12.141716" cy="-75.668028" r="2" fill="#585a6b"/>
<circle cx="-19.645709" cy="-76.243608" r="2" fill="#1e4b72"/>
<circle cx="19.645709" cy="-76.243608" r="2" fill="#080e56"/>
<circle cx="-4.637723" cy="-76.243608" r="2" fill="#56585b"/>
<circle cx="4.637723" cy="-76.243608" r="2" fill="#7288a7"/>
<circle cx="0.000000" cy="-77.750495" r="2" fill="#7b96b7"/>
<circle cx="-19.645709" cy="-81.119998" r="2" fill="#5d9ebf"/>
<circle cx="-13.913169" cy="-81.119998" r="2" fill="#42515e"/>
<circle cx="-4.637723" cy="-81.119998" r="2" fill="#82868b"/>
<circle cx="4.637723" cy="-81.119998" r="2" fill="#515b6e"/>
<circle cx="13.913169" cy="-81.119998" r="2" fill="#202f53"/>
<circle cx="19.645709" cy="-81.119998" r="2" fill="#7a5181"/>
<circle cx="-11.046898" cy="-85.065081" r="2" fill="#969fa6"/>
<circle cx="-7.503993" cy="-85.065081" r="2" fill="#96a1ac"/>
<circle cx="7.503993" cy="-85.065081" r="2" fill="#565d74"/>
<circle cx="11.046898" cy="-85.065081" r="2" fill="#67687d"/>
<circle cx="-15.684621" cy="-86.571968" r="2" fill="#010f19"/>
<circle cx="15.684621" cy="-86.571968" r="2" fill="#492f6b"/>
<circle cx="-2.866270" cy="-86.571968" r="2" fill="#a0acba"/>
<circle cx="2.866270" cy="-86.571968" r="2" fill="#5e7fa9"/>
<circle cx="-9.275446" cy="-90.517051" r="2" fill="#737e88"/>
<circle cx="9.275446" cy="-90.517051" r="2" fill="#30313b"/>
<circle cx="0.000000" cy="-90.517051" r="2" fill="#425974"/>
<circle cx="-4.637723" cy="-93.886554" r="2" fill="#73787e"/>
<circle cx="4.637723" cy="-93.886554" r="2" fill="#5f799e"/>
<circle cx="0.000000" cy="-97.256057" r="2" fill="#3b71aa"/>
<circle cx="-4.637723" cy="-98.762944" r="2" fill="#687684"/>
<circle cx="4.637723" cy="-98.762944" r="2" fill="#151920"/>
<circle cx="-2.866270" cy="-104.214915" r="2" fill="#5f6c7a"/>
<circle cx="2.866270" cy="-104.214915" r="2" fill="#426495"/>
</g>
</svg>